<svg width="253" height="81" viewBox="0 0 253 81" fill="none" xmlns="http://www.w3.org/2000/svg">
<path d="M50.7941 19.304V39.464C50.7941 41.48 51.2901 43.032 52.2821 44.12C53.2741 45.208 54.7301 45.752 56.6501 45.752C58.5701 45.752 60.0421 45.208 61.0661 44.12C62.0901 43.032 62.6021 41.48 62.6021 39.464V19.304H70.8101V39.416C70.8101 42.424 70.1701 44.968 68.8901 47.048C67.6101 49.128 65.8821 50.696 63.7061 51.752C61.5621 52.808 59.1621 53.336 56.5061 53.336C53.8501 53.336 51.4661 52.824 49.3541 51.8C47.2741 50.744 45.6261 49.176 44.4101 47.096C43.1941 44.984 42.5861 42.424 42.5861 39.416V19.304H50.7941ZM106.718 53H98.5099L84.7819 32.216V53H76.5739V19.304H84.7819L98.5099 40.184V19.304H106.718V53ZM120.876 19.304V53H112.668V19.304H120.876ZM152.504 30.152C152.504 32.104 152.056 33.896 151.16 35.528C150.264 37.128 148.888 38.424 147.032 39.416C145.176 40.408 142.872 40.904 140.12 40.904H135.032V53H126.824V19.304H140.12C142.808 19.304 145.08 19.768 146.936 20.696C148.792 21.624 150.184 22.904 151.112 24.536C152.04 26.168 152.504 28.04 152.504 30.152ZM139.496 34.376C141.064 34.376 142.232 34.008 143 33.272C143.768 32.536 144.152 31.496 144.152 30.152C144.152 28.808 143.768 27.768 143 27.032C142.232 26.296 141.064 25.928 139.496 25.928H135.032V34.376H139.496ZM172.713 53.336C169.545 53.336 166.633 52.6 163.977 51.128C161.353 49.656 159.257 47.608 157.689 44.984C156.153 42.328 155.385 39.352 155.385 36.056C155.385 32.76 156.153 29.8 157.689 27.176C159.257 24.552 161.353 22.504 163.977 21.032C166.633 19.56 169.545 18.824 172.713 18.824C175.881 18.824 178.777 19.56 181.401 21.032C184.057 22.504 186.137 24.552 187.641 27.176C189.177 29.8 189.945 32.76 189.945 36.056C189.945 39.352 189.177 42.328 187.641 44.984C186.105 47.608 184.025 49.656 181.401 51.128C178.777 52.6 175.881 53.336 172.713 53.336ZM172.713 45.848C175.401 45.848 177.545 44.952 179.145 43.16C180.777 41.368 181.593 39 181.593 36.056C181.593 33.08 180.777 30.712 179.145 28.952C177.545 27.16 175.401 26.264 172.713 26.264C169.993 26.264 167.817 27.144 166.185 28.904C164.585 30.664 163.785 33.048 163.785 36.056C163.785 39.032 164.585 41.416 166.185 43.208C167.817 44.968 169.993 45.848 172.713 45.848ZM210.447 53.336C207.279 53.336 204.367 52.6 201.711 51.128C199.087 49.656 196.991 47.608 195.423 44.984C193.887 42.328 193.119 39.352 193.119 36.056C193.119 32.76 193.887 29.8 195.423 27.176C196.991 24.552 199.087 22.504 201.711 21.032C204.367 19.56 207.279 18.824 210.447 18.824C213.615 18.824 216.511 19.56 219.135 21.032C221.791 22.504 223.871 24.552 225.375 27.176C226.911 29.8 227.679 32.76 227.679 36.056C227.679 39.352 226.911 42.328 225.375 44.984C223.839 47.608 221.759 49.656 219.135 51.128C216.511 52.6 213.615 53.336 210.447 53.336ZM210.447 45.848C213.135 45.848 215.279 44.952 216.879 43.16C218.511 41.368 219.327 39 219.327 36.056C219.327 33.08 218.511 30.712 216.879 28.952C215.279 27.16 213.135 26.264 210.447 26.264C207.727 26.264 205.551 27.144 203.919 28.904C202.319 30.664 201.519 33.048 201.519 36.056C201.519 39.032 202.319 41.416 203.919 43.208C205.551 44.968 207.727 45.848 210.447 45.848ZM240.454 46.664H251.206V53H232.246V19.304H240.454V46.664Z" fill="#EA6237"/>
<path d="M50.6217 63.848V65.032H45.7737V68.792H49.7097V69.976H45.7737V75H44.3177V63.848H50.6217ZM55.1162 63.848V75H53.6602V63.848H55.1162ZM67.6457 75H66.1897L60.3337 66.12V75H58.8777V63.832H60.3337L66.1897 72.696V63.832H67.6457V75ZM74.8797 63.848C76.0957 63.848 77.1463 64.0773 78.0317 64.536C78.9277 64.984 79.6103 65.6293 80.0797 66.472C80.5597 67.3147 80.7997 68.3067 80.7997 69.448C80.7997 70.5893 80.5597 71.5813 80.0797 72.424C79.6103 73.256 78.9277 73.896 78.0317 74.344C77.1463 74.7813 76.0957 75 74.8797 75H71.4077V63.848H74.8797ZM74.8797 73.8C76.3197 73.8 77.4183 73.4213 78.1757 72.664C78.933 71.896 79.3117 70.824 79.3117 69.448C79.3117 68.0613 78.9277 66.9787 78.1597 66.2C77.4023 65.4213 76.309 65.032 74.8797 65.032H72.8637V73.8H74.8797ZM97.3538 63.848L93.7218 70.792V75H92.2658V70.792L88.6178 63.848H90.2338L92.9858 69.496L95.7378 63.848H97.3538ZM105.226 75.112C104.191 75.112 103.247 74.872 102.394 74.392C101.54 73.9013 100.863 73.224 100.362 72.36C99.8709 71.4853 99.6255 70.504 99.6255 69.416C99.6255 68.328 99.8709 67.352 100.362 66.488C100.863 65.6133 101.54 64.936 102.394 64.456C103.247 63.9653 104.191 63.72 105.226 63.72C106.271 63.72 107.22 63.9653 108.074 64.456C108.927 64.936 109.599 65.608 110.09 66.472C110.58 67.336 110.826 68.3173 110.826 69.416C110.826 70.5147 110.58 71.496 110.09 72.36C109.599 73.224 108.927 73.9013 108.074 74.392C107.22 74.872 106.271 75.112 105.226 75.112ZM105.226 73.848C106.004 73.848 106.703 73.6667 107.322 73.304C107.951 72.9413 108.442 72.424 108.794 71.752C109.156 71.08 109.338 70.3013 109.338 69.416C109.338 68.52 109.156 67.7413 108.794 67.08C108.442 66.408 107.956 65.8907 107.338 65.528C106.719 65.1653 106.015 64.984 105.226 64.984C104.436 64.984 103.732 65.1653 103.114 65.528C102.495 65.8907 102.004 66.408 101.642 67.08C101.29 67.7413 101.114 68.52 101.114 69.416C101.114 70.3013 101.29 71.08 101.642 71.752C102.004 72.424 102.495 72.9413 103.114 73.304C103.743 73.6667 104.447 73.848 105.226 73.848ZM115.452 63.848V70.904C115.452 71.896 115.692 72.632 116.172 73.112C116.662 73.592 117.34 73.832 118.204 73.832C119.057 73.832 119.724 73.592 120.204 73.112C120.694 72.632 120.94 71.896 120.94 70.904V63.848H122.396V70.888C122.396 71.816 122.209 72.6 121.836 73.24C121.462 73.8693 120.956 74.3387 120.316 74.648C119.686 74.9573 118.977 75.112 118.188 75.112C117.398 75.112 116.684 74.9573 116.044 74.648C115.414 74.3387 114.913 73.8693 114.54 73.24C114.177 72.6 113.996 71.816 113.996 70.888V63.848H115.452ZM131.977 75L129.321 70.44H127.561V75H126.105V63.848H129.705C130.547 63.848 131.257 63.992 131.833 64.28C132.419 64.568 132.857 64.9573 133.145 65.448C133.433 65.9387 133.577 66.4987 133.577 67.128C133.577 67.896 133.353 68.5733 132.905 69.16C132.467 69.7467 131.806 70.136 130.921 70.328L133.721 75H131.977ZM127.561 69.272H129.705C130.494 69.272 131.086 69.08 131.481 68.696C131.875 68.3013 132.073 67.7787 132.073 67.128C132.073 66.4667 131.875 65.9547 131.481 65.592C131.097 65.2293 130.505 65.048 129.705 65.048H127.561V69.272ZM150.121 67.112C150.121 68.04 149.801 68.8133 149.161 69.432C148.531 70.04 147.566 70.344 146.265 70.344H144.121V75H142.665V63.848H146.265C147.523 63.848 148.478 64.152 149.129 64.76C149.79 65.368 150.121 66.152 150.121 67.112ZM146.265 69.144C147.075 69.144 147.673 68.968 148.057 68.616C148.441 68.264 148.633 67.7627 148.633 67.112C148.633 65.736 147.843 65.048 146.265 65.048H144.121V69.144H146.265ZM158.266 75.112C157.231 75.112 156.287 74.872 155.434 74.392C154.581 73.9013 153.903 73.224 153.402 72.36C152.911 71.4853 152.666 70.504 152.666 69.416C152.666 68.328 152.911 67.352 153.402 66.488C153.903 65.6133 154.581 64.936 155.434 64.456C156.287 63.9653 157.231 63.72 158.266 63.72C159.311 63.72 160.261 63.9653 161.114 64.456C161.967 64.936 162.639 65.608 163.13 66.472C163.621 67.336 163.866 68.3173 163.866 69.416C163.866 70.5147 163.621 71.496 163.13 72.36C162.639 73.224 161.967 73.9013 161.114 74.392C160.261 74.872 159.311 75.112 158.266 75.112ZM158.266 73.848C159.045 73.848 159.743 73.6667 160.362 73.304C160.991 72.9413 161.482 72.424 161.834 71.752C162.197 71.08 162.378 70.3013 162.378 69.416C162.378 68.52 162.197 67.7413 161.834 67.08C161.482 66.408 160.997 65.8907 160.378 65.528C159.759 65.1653 159.055 64.984 158.266 64.984C157.477 64.984 156.773 65.1653 156.154 65.528C155.535 65.8907 155.045 66.408 154.682 67.08C154.33 67.7413 154.154 68.52 154.154 69.416C154.154 70.3013 154.33 71.08 154.682 71.752C155.045 72.424 155.535 72.9413 156.154 73.304C156.783 73.6667 157.487 73.848 158.266 73.848ZM172.124 75.112C171.09 75.112 170.146 74.872 169.292 74.392C168.439 73.9013 167.762 73.224 167.26 72.36C166.77 71.4853 166.524 70.504 166.524 69.416C166.524 68.328 166.77 67.352 167.26 66.488C167.762 65.6133 168.439 64.936 169.292 64.456C170.146 63.9653 171.09 63.72 172.124 63.72C173.17 63.72 174.119 63.9653 174.972 64.456C175.826 64.936 176.498 65.608 176.988 66.472C177.479 67.336 177.724 68.3173 177.724 69.416C177.724 70.5147 177.479 71.496 176.988 72.36C176.498 73.224 175.826 73.9013 174.972 74.392C174.119 74.872 173.17 75.112 172.124 75.112ZM172.124 73.848C172.903 73.848 173.602 73.6667 174.22 73.304C174.85 72.9413 175.34 72.424 175.692 71.752C176.055 71.08 176.236 70.3013 176.236 69.416C176.236 68.52 176.055 67.7413 175.692 67.08C175.34 66.408 174.855 65.8907 174.236 65.528C173.618 65.1653 172.914 64.984 172.124 64.984C171.335 64.984 170.631 65.1653 170.012 65.528C169.394 65.8907 168.903 66.408 168.54 67.08C168.188 67.7413 168.012 68.52 168.012 69.416C168.012 70.3013 168.188 71.08 168.54 71.752C168.903 72.424 169.394 72.9413 170.012 73.304C170.642 73.6667 171.346 73.848 172.124 73.848ZM182.382 73.816H186.286V75H180.926V63.848H182.382V73.816ZM200.425 63.928V75H198.969V66.744L195.289 75H194.265L190.569 66.728V75H189.113V63.928H190.681L194.777 73.08L198.873 63.928H200.425ZM210.766 72.52H205.902L205.006 75H203.47L207.502 63.912H209.182L213.198 75H211.662L210.766 72.52ZM210.35 71.336L208.334 65.704L206.318 71.336H210.35ZM223.099 63.848V65.032H220.059V75H218.603V65.032H215.547V63.848H223.099ZM227.627 65.032V68.76H231.691V69.96H227.627V73.8H232.171V75H226.171V63.832H232.171V65.032H227.627ZM239.191 75.112C238.455 75.112 237.793 74.984 237.207 74.728C236.631 74.4613 236.177 74.0987 235.847 73.64C235.516 73.1707 235.345 72.632 235.335 72.024H236.887C236.94 72.5467 237.153 72.9893 237.527 73.352C237.911 73.704 238.465 73.88 239.191 73.88C239.884 73.88 240.428 73.7093 240.823 73.368C241.228 73.016 241.431 72.568 241.431 72.024C241.431 71.5973 241.313 71.2507 241.079 70.984C240.844 70.7173 240.551 70.5147 240.199 70.376C239.847 70.2373 239.372 70.088 238.775 69.928C238.039 69.736 237.447 69.544 236.999 69.352C236.561 69.16 236.183 68.8613 235.863 68.456C235.553 68.04 235.399 67.4853 235.399 66.792C235.399 66.184 235.553 65.6453 235.863 65.176C236.172 64.7067 236.604 64.344 237.159 64.088C237.724 63.832 238.369 63.704 239.095 63.704C240.14 63.704 240.993 63.9653 241.655 64.488C242.327 65.0107 242.705 65.704 242.791 66.568H241.191C241.137 66.1413 240.913 65.768 240.519 65.448C240.124 65.1173 239.601 64.952 238.951 64.952C238.343 64.952 237.847 65.112 237.463 65.432C237.079 65.7413 236.887 66.1787 236.887 66.744C236.887 67.1493 236.999 67.48 237.223 67.736C237.457 67.992 237.74 68.1893 238.071 68.328C238.412 68.456 238.887 68.6053 239.495 68.776C240.231 68.9787 240.823 69.1813 241.271 69.384C241.719 69.576 242.103 69.88 242.423 70.296C242.743 70.7013 242.903 71.256 242.903 71.96C242.903 72.504 242.759 73.016 242.471 73.496C242.183 73.976 241.756 74.3653 241.191 74.664C240.625 74.9627 239.959 75.112 239.191 75.112Z" fill="#EA6237"/>
<path d="M17.9494 74.3358C21.1882 71.6061 24.1902 68.6135 26.9241 65.3893C31.0268 60.5474 35.8988 53.3365 35.8988 46.4651C35.9006 42.9558 34.8487 39.5248 32.8764 36.6065C30.9041 33.6881 28.0999 31.4135 24.8187 30.0704C21.5376 28.7274 17.927 28.3764 14.4439 29.0618C10.9608 29.7471 7.76172 31.4381 5.25157 33.9207C3.58034 35.5647 2.25569 37.5199 1.35428 39.6731C0.452869 41.8264 -0.00740433 44.1349 9.91821e-05 46.4651C9.91821e-05 53.3365 4.87207 60.5474 8.97478 65.3893C11.7087 68.6135 14.7107 71.6061 17.9494 74.3358ZM17.9494 38.8639C19.9896 38.8639 21.9463 39.6648 23.3889 41.0903C24.8316 42.5157 25.642 44.4491 25.642 46.4651C25.642 48.481 24.8316 50.4144 23.3889 51.8399C21.9463 53.2654 19.9896 54.0662 17.9494 54.0662C15.9093 54.0662 13.9526 53.2654 12.51 51.8399C11.0673 50.4144 10.2569 48.481 10.2569 46.4651C10.2569 44.4491 11.0673 42.5157 12.51 41.0903C13.9526 39.6648 15.9093 38.8639 17.9494 38.8639Z" fill="#EFA189"/>
<path d="M17.9494 64.5609C21.1882 61.8312 24.1902 58.8386 26.9241 55.6144C31.0268 50.7725 35.8988 43.5616 35.8988 36.6902C35.9006 33.1809 34.8487 29.7499 32.8764 26.8316C30.9041 23.9132 28.0999 21.6386 24.8187 20.2955C21.5376 18.9525 17.927 18.6015 14.4439 19.2869C10.9608 19.9722 7.76172 21.6632 5.25157 24.1458C3.58034 25.7898 2.25569 27.745 1.35428 29.8982C0.452869 32.0515 -0.00740433 34.36 9.91821e-05 36.6902C9.91821e-05 43.5616 4.87207 50.7725 8.97478 55.6144C11.7087 58.8386 14.7107 61.8312 17.9494 64.5609ZM17.9494 29.089C19.9896 29.089 21.9463 29.8899 23.3889 31.3154C24.8316 32.7408 25.642 34.6742 25.642 36.6902C25.642 38.7061 24.8316 40.6395 23.3889 42.065C21.9463 43.4905 19.9896 44.2913 17.9494 44.2913C15.9093 44.2913 13.9526 43.4905 12.51 42.065C11.0673 40.6395 10.2569 38.7061 10.2569 36.6902C10.2569 34.6742 11.0673 32.7408 12.51 31.3154C13.9526 29.8899 15.9093 29.089 17.9494 29.089Z" fill="#EA6237"/>
</svg>
