<svg width="414" height="411" viewBox="0 0 414 411" fill="none" xmlns="http://www.w3.org/2000/svg">
<path opacity="0.3" fill-rule="evenodd" clip-rule="evenodd" d="M186.042 -132.569C226.884 -115.252 264.594 -81.3002 280.647 -35.1645C294.149 3.6404 239.953 51.548 261.775 85.0852C303.598 149.359 416.577 129.929 437.713 206.217C454.149 265.54 378.117 308.307 333.619 344.393C289.498 380.173 240.185 408.469 186.042 410.308C130.82 412.184 75.1865 393.767 31.9271 354.639C-10.2463 316.494 -31.4419 258.042 -47.1565 199.382C-62.609 141.701 -68.5333 82.0599 -56.853 23.2397C-44.2495 -40.2289 -28.5299 -113.21 21.2596 -145.148C70.4262 -176.687 133.158 -154.993 186.042 -132.569Z" fill="#EFA189"/>
</svg>
