<svg width="30" height="30" viewBox="0 0 30 30" fill="none" xmlns="http://www.w3.org/2000/svg">
<path d="M29.9857 15.2807C29.9857 14.0516 29.8836 13.1547 29.6627 12.2246H15.2988V17.7721H23.7301C23.5602 19.1507 22.6423 21.2269 20.6024 22.622L20.5738 22.8077L25.1154 26.2455L25.43 26.2762C28.3198 23.6685 29.9857 19.8317 29.9857 15.2807Z" fill="#4285F4"/>
<path d="M15.2998 29.8973C19.4304 29.8973 22.8981 28.5684 25.431 26.2764L20.6034 22.6223C19.3115 23.5026 17.5776 24.1171 15.2998 24.1171C11.2541 24.1171 7.82043 21.5095 6.59641 17.9053L6.41699 17.9202L1.69457 21.4912L1.63281 21.6589C4.14859 26.5421 9.31621 29.8973 15.2998 29.8973Z" fill="#34A853"/>
<path d="M6.59543 17.9045C6.27246 16.9744 6.08555 15.9778 6.08555 14.948C6.08555 13.9182 6.27246 12.9216 6.57844 11.9915L6.56988 11.7934L1.78828 8.16504L1.63184 8.23775C0.594961 10.2641 0 12.5397 0 14.948C0 17.3564 0.594961 19.6318 1.63184 21.6582L6.59543 17.9045Z" fill="#FBBC05"/>
<path d="M15.2998 5.78004C18.1725 5.78004 20.1104 6.99252 21.2153 8.00576L25.533 3.8866C22.8812 1.47824 19.4304 0 15.2998 0C9.31621 0 4.14859 3.35508 1.63281 8.23821L6.57941 11.992C7.82043 8.38775 11.2541 5.78004 15.2998 5.78004Z" fill="#EB4335"/>
</svg>
