<svg width="215" height="149" viewBox="0 0 215 149" fill="none" xmlns="http://www.w3.org/2000/svg">
<path d="M16.5083 132.517C16.5399 132.84 16.5558 133.165 16.5558 133.491H16.5083C16.4323 130.894 16.3848 122.305 16.3848 112.115C16.3848 105.971 16.3848 100.411 16.4323 96.3219C16.4323 94.3423 16.4323 92.7197 16.4893 91.5298C16.4893 90.9997 16.4893 90.567 16.4893 90.2317C16.4666 90.0813 16.4666 89.9277 16.4893 89.7773C16.5018 89.9285 16.5018 90.0806 16.4893 90.2317C16.4893 90.567 16.4893 90.9997 16.4893 91.5298C16.4893 92.7197 16.4893 94.3423 16.5463 96.3219C16.5463 100.411 16.5463 105.971 16.5938 112.115C16.5938 122.305 16.5463 130.894 16.4703 133.491H16.5083C16.4818 133.167 16.4818 132.841 16.5083 132.517V132.517Z" fill="#F5F5F5"/>
<path d="M21.9247 132.517C21.9691 132.839 21.9851 133.165 21.9722 133.491H21.8772C21.8012 130.894 21.7441 122.305 21.7441 112.115C21.7441 105.971 21.7442 100.411 21.8012 96.3219C21.8012 94.3423 21.8012 92.7197 21.8582 91.5298C21.8582 91.0033 21.8582 90.5706 21.8582 90.2317C21.8478 90.0805 21.8478 89.9286 21.8582 89.7773C21.8748 89.9282 21.8748 90.0808 21.8582 90.2317C21.8582 90.5706 21.8582 91.0033 21.8582 91.5298C21.8582 92.7197 21.8582 94.3423 21.9152 96.3219C21.9152 100.411 21.9152 105.971 21.9722 112.115C21.9722 122.305 21.9152 130.894 21.8392 133.491H21.7441C21.7816 133.161 21.842 132.836 21.9247 132.517V132.517Z" fill="#F5F5F5"/>
<path d="M19.7959 148.105L31.6944 141.615C32.7968 137.428 33.9087 133.231 35.1251 128.634L49.3805 135.849L54.1798 118.887L68.4351 125.929L73.0728 108.87C77.1879 111.034 80.6757 113.111 84.3251 114.517C86.3158 115.285 88.4736 115.285 90.4644 114.517C95.6058 112.159 100.529 109.162 105.67 106.328C106.411 107.94 106.877 108.881 107.286 109.855C109.728 115.685 109.899 115.772 115.126 113.035C120.695 110.125 126.274 107.237 131.776 104.197C134.114 102.899 135.901 103.116 138.277 104.652C156.429 116.259 174.685 116.897 192.228 103.375C208.841 90.5565 216.111 72.0804 213.659 49.5585C211.207 27.0367 199.993 11.5461 181.451 3.67106C152.218 -8.73651 120.477 12.7901 115.611 47.9143C115.202 50.8134 114.271 52.3602 111.942 53.4636C107.191 55.7244 102.524 58.2774 97.8391 60.7329C89.9702 64.8435 89.9797 64.8435 92.4791 74.352C90.9015 75.3148 89.628 76.2235 88.2215 76.9374C70.0032 86.4243 21.4685 111.077 5.54058 119.125L0 140.619L19.7959 148.105ZM201.513 51.8302C200.055 56.1356 197.507 59.8516 194.192 62.5076C190.877 65.1635 186.944 66.6398 182.891 66.7496C178.839 66.8594 174.849 65.5977 171.426 63.1243C168.004 60.6509 165.304 57.0771 163.667 52.8555C162.03 48.6339 161.531 43.9544 162.233 39.4097C162.935 34.8651 164.806 30.6596 167.609 27.3261C170.412 23.9926 174.021 21.6809 177.979 20.6839C181.937 19.6868 186.066 20.0493 189.843 21.7253C192.356 22.819 194.654 24.4689 196.604 26.5798C198.553 28.6906 200.116 31.2204 201.201 34.023C202.287 36.8255 202.873 39.8451 202.926 42.9072C202.98 45.9693 202.5 49.0131 201.513 51.8626V51.8302Z" fill="#EA6237"/>
<path opacity="0.3" d="M94.5988 89.8748L12.4215 130.429C11.7599 130.755 11.0117 130.768 10.3416 130.466C9.67147 130.163 9.13428 129.571 8.84817 128.817C8.56213 128.064 8.55061 127.213 8.81617 126.45C9.08172 125.687 9.60258 125.076 10.2642 124.75L92.4319 84.2064C92.7588 84.0434 93.1107 83.9555 93.4675 83.9478C93.8243 83.9401 94.1789 84.0127 94.511 84.1615C94.843 84.3103 95.146 84.5323 95.4024 84.8147C95.6589 85.0972 95.8637 85.4345 96.0053 85.8074V85.8074C96.1485 86.1795 96.2257 86.58 96.2325 86.9861C96.2393 87.3923 96.1755 87.7959 96.0448 88.1739C95.9141 88.5518 95.719 88.8966 95.4709 89.1885C95.2227 89.4804 94.9263 89.7136 94.5988 89.8748V89.8748Z" fill="black"/>
<path d="M99.104 90.2002C99.104 90.2002 99.0279 90.2651 98.8664 90.3624L98.1346 90.7627L95.2835 92.2663L84.8296 97.675C76.0198 102.251 63.8553 108.492 50.3697 115.405C36.8842 122.317 24.6246 128.386 15.7007 132.604C11.2436 134.768 7.61322 136.445 5.10428 137.591L2.25322 138.889L1.49293 139.225L1.23633 139.311C1.23633 139.311 1.31236 139.257 1.47392 139.171L2.21521 138.792L5.06627 137.386L15.6057 132.247C24.4915 127.921 36.7226 121.744 50.2082 114.94L84.7251 97.3505L95.179 92.0716L98.0301 90.6762L98.7808 90.3192L99.104 90.2002Z" fill="#263238"/>
<path d="M108.141 110.753C108.018 110.818 104.273 102.229 99.7685 91.5632C95.2638 80.8972 91.7285 72.2 91.8425 72.0918C91.9566 71.9837 95.72 80.6051 100.215 91.2819C104.71 101.959 108.265 110.753 108.141 110.753Z" fill="#263238"/>
<path d="M211.33 56.86C211.33 56.86 211.33 56.5679 211.273 56.0054C211.216 55.4429 211.197 54.5883 211.13 53.5066C211.13 52.9513 211.102 52.3347 211.045 51.6568C210.978 50.9861 210.855 50.2505 210.75 49.4933C210.646 48.7361 210.522 47.8382 210.398 46.9296C210.241 45.9587 210.038 44.9982 209.79 44.0521C208.717 39.1208 206.989 34.4044 204.668 30.0652C201.64 24.2849 197.658 19.2267 192.94 15.1697L190.954 13.4821C190.251 12.9521 189.51 12.4761 188.787 11.9677C188.065 11.4593 187.333 10.886 186.535 10.4857L184.14 9.17681L182.924 8.51695L181.65 7.98689L179.018 6.90515C178.134 6.56981 177.212 6.35346 176.3 6.0722C175.386 5.76803 174.456 5.52959 173.515 5.35827C171.591 4.94755 169.645 4.69091 167.689 4.59022C166.692 4.59022 165.694 4.43877 164.686 4.44959L161.636 4.63349C161.122 4.63349 160.609 4.63349 160.096 4.74167L158.557 5.0121C157.53 5.20682 156.494 5.34744 155.458 5.58542C153.374 6.11605 151.324 6.80264 149.319 7.64073L147.789 8.27896C147.532 8.38714 147.276 8.4845 147.029 8.60349L146.287 9.00373L143.313 10.648C142.362 11.2429 141.412 11.9461 140.462 12.5951C139.987 12.9304 139.511 13.2333 139.036 13.6119L137.687 14.7694C135.847 16.3181 134.101 18.0058 132.46 19.8211L130.122 22.7635L129.533 23.4991L129 24.2887L127.946 25.9005L126.862 27.4582L125.912 29.1782L124.961 30.9198L124.496 31.7852C124.353 32.0881 124.23 32.4018 124.097 32.7047L122.538 36.4042C122.12 37.6915 121.702 38.9788 121.284 40.2877C118.117 51.0161 118.117 62.6281 121.284 73.3565C121.702 74.6546 122.12 75.9527 122.529 77.24C122.937 78.5272 123.574 79.7063 124.097 80.9395L124.486 81.859L124.952 82.7244L125.902 84.466L126.853 86.186L127.917 87.7978L128.972 89.4096L129.495 90.1992L130.084 90.9456C130.873 91.9192 131.652 92.9036 132.431 93.8771C134.069 95.6924 135.812 97.3801 137.649 98.9289L139.008 100.086C139.454 100.476 139.958 100.768 140.433 101.168C141.384 101.817 142.334 102.509 143.284 103.115L146.259 104.749L147 105.149L147.76 105.484L149.291 106.122C151.295 106.957 153.346 107.64 155.43 108.167C156.466 108.416 157.511 108.546 158.528 108.74L160.068 109.011C160.581 109.086 161.094 109.086 161.607 109.119L164.658 109.303C165.665 109.303 166.663 109.205 167.661 109.173C169.616 109.068 171.562 108.811 173.487 108.405C174.426 108.225 175.356 107.983 176.271 107.68C177.222 107.399 178.105 107.183 178.989 106.858L181.584 105.776L182.867 105.246L184.083 104.586L186.468 103.277C187.267 102.866 187.98 102.282 188.721 101.806C189.462 101.33 190.184 100.811 190.888 100.292L192.883 98.5935C197.621 94.5436 201.626 89.4893 204.677 83.7088C206.985 79.3423 208.693 74.6 209.743 69.6461C209.989 68.7034 210.192 67.7465 210.351 66.7795C210.474 65.8601 210.589 65.0055 210.703 64.205C210.817 63.4045 210.931 62.6797 210.997 62.0415C211.064 61.4033 211.054 60.7542 211.083 60.2025C211.149 59.1208 211.187 58.277 211.225 57.7037C211.263 57.1304 211.282 56.8491 211.282 56.8491C211.282 56.8491 211.282 57.1304 211.282 57.7037C211.282 58.277 211.235 59.1208 211.197 60.2025C211.197 60.765 211.149 61.3816 211.13 62.0523C211.111 62.723 210.95 63.4694 210.855 64.2158C210.76 64.9622 210.646 65.8709 210.522 66.7903C210.375 67.7643 210.181 68.7285 209.942 69.6786C208.89 74.6313 207.182 79.373 204.877 83.7412C201.85 89.5967 197.854 94.7287 193.111 98.8532L191.106 100.562C190.403 101.092 189.662 101.579 188.93 102.098C188.198 102.618 187.466 103.18 186.668 103.591L184.254 104.922L183.028 105.582L181.745 106.122L179.132 107.204C178.238 107.55 177.317 107.767 176.395 108.048C175.459 108.361 174.507 108.607 173.544 108.784C171.601 109.197 169.635 109.461 167.661 109.573C166.711 109.573 165.656 109.735 164.639 109.714L161.56 109.541C161.037 109.541 160.524 109.541 160.001 109.433L158.452 109.162C157.416 108.967 156.361 108.838 155.325 108.589C153.219 108.06 151.146 107.373 149.12 106.534L147.57 105.884C147.314 105.776 147.048 105.679 146.801 105.56L146.05 105.149L143.047 103.505C142.096 102.899 141.146 102.196 140.148 101.536C139.663 101.19 139.198 100.898 138.704 100.508L137.335 99.3399C135.474 97.7765 133.709 96.0706 132.051 94.2341L129.685 91.281L129.086 90.5346L128.554 89.7233L127.489 88.1006L126.416 86.478L125.465 84.7364L124.515 82.9732L124.04 82.097L123.64 81.1667L122.063 77.4347C121.645 76.1366 121.217 74.8277 120.799 73.508C117.593 62.6648 117.593 50.9253 120.799 40.0821C121.227 38.7732 121.645 37.4643 122.063 36.1663C122.481 34.8682 123.118 33.6674 123.65 32.4234C123.783 32.1205 123.907 31.8068 124.049 31.504L124.515 30.6169L125.465 28.8645L126.416 27.1229L127.489 25.5003L128.554 23.8777L129.096 23.0664L129.685 22.32C130.483 21.3356 131.272 20.3404 132.051 19.3668C133.713 17.536 135.478 15.8304 137.335 14.261L138.704 13.0927C139.16 12.7033 139.654 12.4112 140.148 12.011C141.099 11.3511 142.049 10.648 143.047 10.0422L146.05 8.39796L146.801 7.98689C147.048 7.8679 147.314 7.77054 147.57 7.66236L149.12 7.02414C151.143 6.18091 153.213 5.4907 155.316 4.95801C156.361 4.72003 157.416 4.5794 158.452 4.38469L160.001 4.12507C160.514 4.04934 161.037 4.04936 161.56 4.00609L164.629 3.83301C165.646 3.83301 166.663 3.93035 167.661 3.97362C169.635 4.08686 171.6 4.35069 173.544 4.76331C174.506 4.94543 175.458 5.19103 176.395 5.49888C177.345 5.79095 178.238 6.0073 179.132 6.34264L181.745 7.42438L183.028 7.96525L184.254 8.62511L186.668 9.95567C187.466 10.3775 188.179 10.9617 188.93 11.4593C189.681 11.9569 190.403 12.4545 191.106 12.9845L193.111 14.7045C197.845 18.8078 201.835 23.9179 204.858 29.7515C207.169 34.1173 208.881 38.8596 209.933 43.8142C210.17 44.7648 210.363 45.7289 210.512 46.7024C210.636 47.6219 210.741 48.4873 210.845 49.2878C210.95 50.0883 211.064 50.813 211.121 51.4512C211.178 52.0895 211.168 52.7493 211.187 53.301C211.187 54.3828 211.254 55.2265 211.273 55.8107C211.292 56.3948 211.33 56.86 211.33 56.86Z" fill="#263238"/>
<path d="M127.101 21.3252C126.9 21.7788 126.661 22.2097 126.389 22.6125C125.894 23.413 125.21 24.6029 124.421 26.1065C123.49 27.8573 122.64 29.6627 121.874 31.5152C120.941 33.7823 120.123 36.1082 119.423 38.4816C118.751 40.8679 118.195 43.2947 117.759 45.7509C117.389 48.0226 117.132 50.0779 116.999 51.8195C116.866 53.5611 116.781 54.9782 116.762 55.9626C116.776 56.4697 116.744 56.9772 116.667 57.477C116.595 56.9728 116.564 56.4623 116.571 55.9517C116.571 54.9782 116.571 53.5503 116.648 51.787C116.771 49.7303 116.993 47.6828 117.313 45.6536C118.117 40.6737 119.51 35.8411 121.456 31.288C122.257 29.432 123.146 27.6265 124.117 25.8793C124.963 24.3973 125.685 23.2399 126.227 22.4718C126.487 22.0601 126.78 21.6763 127.101 21.3252Z" fill="white"/>
</svg>
