<svg width="503" height="502" viewBox="0 0 503 502" fill="none" xmlns="http://www.w3.org/2000/svg">
<path opacity="0.3" fill-rule="evenodd" clip-rule="evenodd" d="M249.042 24.9451C289.884 40.1592 327.594 69.9871 343.647 110.519C357.149 144.611 302.953 186.7 324.775 216.164C366.598 272.631 479.577 255.561 500.713 322.583C517.149 374.701 441.117 412.274 396.619 443.977C352.498 475.411 303.185 500.27 249.042 501.886C193.82 503.534 138.186 487.354 94.9271 452.978C52.7537 419.466 31.5581 368.113 15.8435 316.578C0.391033 265.903 -5.53334 213.506 6.14705 161.83C18.7505 106.07 34.4701 41.9528 84.2596 13.8936C133.426 -13.8145 196.158 5.24501 249.042 24.9451Z" fill="#EFA189"/>
<path d="M258.506 312.306C258.538 312.59 258.554 312.876 258.554 313.162H258.506C258.43 310.881 258.383 303.335 258.383 294.383C258.383 288.985 258.383 284.1 258.43 280.507C258.43 278.768 258.43 277.343 258.487 276.297C258.487 275.832 258.487 275.452 258.487 275.157C258.465 275.025 258.465 274.89 258.487 274.758C258.5 274.891 258.5 275.024 258.487 275.157C258.487 275.452 258.487 275.832 258.487 276.297C258.487 277.343 258.487 278.768 258.544 280.507C258.544 284.1 258.544 288.985 258.592 294.383C258.592 303.335 258.544 310.881 258.468 313.162H258.506C258.48 312.877 258.48 312.591 258.506 312.306Z" fill="#F5F5F5"/>
<path d="M263.927 312.306C263.971 312.589 263.987 312.876 263.974 313.162H263.879C263.803 310.881 263.746 303.335 263.746 294.383C263.746 288.985 263.746 284.1 263.803 280.507C263.803 278.768 263.803 277.343 263.86 276.297C263.86 275.835 263.86 275.455 263.86 275.157C263.85 275.024 263.85 274.891 263.86 274.758C263.877 274.89 263.877 275.024 263.86 275.157C263.86 275.455 263.86 275.835 263.86 276.297C263.86 277.343 263.86 278.768 263.917 280.507C263.917 284.1 263.917 288.985 263.974 294.383C263.974 303.335 263.917 310.881 263.841 313.162H263.746C263.784 312.872 263.844 312.586 263.927 312.306Z" fill="#F5F5F5"/>
<path d="M261.796 326L273.694 320.298C274.797 316.62 275.909 312.933 277.125 308.894L291.38 315.232L296.18 300.331L310.435 306.518L315.073 291.531C319.188 293.431 322.676 295.256 326.325 296.491C328.316 297.166 330.474 297.166 332.464 296.491C337.606 294.42 342.529 291.787 347.67 289.297C348.411 290.713 348.877 291.54 349.286 292.395C351.728 297.518 351.899 297.594 357.126 295.189C362.695 292.633 368.274 290.096 373.776 287.425C376.114 286.285 377.901 286.475 380.277 287.824C398.429 298.022 416.685 298.582 434.228 286.703C450.841 275.441 458.111 259.209 455.659 239.423C453.207 219.636 441.993 206.027 423.451 199.109C394.218 188.208 362.477 207.12 357.611 237.978C357.202 240.525 356.271 241.884 353.942 242.853C349.191 244.84 344.524 247.082 339.839 249.24C331.97 252.851 331.98 252.851 334.479 261.205C332.902 262.051 331.628 262.849 330.222 263.476C312.003 271.811 263.469 293.469 247.541 300.54L242 319.424L261.796 326ZM443.513 241.418C442.055 245.201 439.507 248.466 436.192 250.799C432.877 253.132 428.944 254.429 424.891 254.526C420.839 254.622 416.849 253.514 413.426 251.341C410.004 249.168 407.304 246.028 405.667 242.319C404.03 238.61 403.531 234.499 404.233 230.506C404.935 226.514 406.806 222.819 409.609 219.89C412.412 216.962 416.021 214.931 419.979 214.055C423.937 213.179 428.066 213.497 431.843 214.97C434.356 215.931 436.654 217.38 438.604 219.235C440.553 221.089 442.116 223.312 443.201 225.774C444.287 228.236 444.873 230.889 444.926 233.579C444.98 236.269 444.5 238.943 443.513 241.447V241.418Z" fill="#EA6237"/>
<path opacity="0.3" d="M336.599 274.844L254.422 310.473C253.76 310.759 253.012 310.771 252.342 310.505C251.671 310.24 251.134 309.719 250.848 309.057C250.562 308.395 250.551 307.647 250.816 306.977C251.082 306.307 251.603 305.77 252.264 305.484L334.432 269.864C334.759 269.721 335.111 269.644 335.468 269.637C335.824 269.63 336.179 269.694 336.511 269.825C336.843 269.956 337.146 270.151 337.402 270.399C337.659 270.647 337.864 270.943 338.005 271.271C338.148 271.598 338.226 271.95 338.232 272.307C338.239 272.663 338.175 273.018 338.045 273.35C337.914 273.682 337.719 273.985 337.471 274.241C337.223 274.498 336.926 274.703 336.599 274.844Z" fill="black"/>
<path d="M341.102 275.129C341.102 275.129 341.026 275.186 340.864 275.271L340.133 275.623L337.282 276.944L326.828 281.696C318.018 285.716 305.853 291.199 292.368 297.272C278.882 303.345 266.623 308.676 257.699 312.383C253.242 314.284 249.611 315.757 247.102 316.764L244.251 317.904L243.491 318.199L243.234 318.275C243.234 318.275 243.31 318.228 243.472 318.151L244.213 317.819L247.064 316.583L257.604 312.069C266.49 308.268 278.721 302.841 292.206 296.864L326.723 281.411L337.177 276.773L340.028 275.547L340.779 275.233L341.102 275.129Z" fill="#263238"/>
<path d="M350.141 293.185C350.018 293.242 346.273 285.697 341.768 276.326C337.264 266.956 333.728 259.315 333.843 259.22C333.957 259.125 337.72 266.699 342.215 276.079C346.71 285.459 350.265 293.185 350.141 293.185Z" fill="#263238"/>
<path d="M453.33 245.836C453.33 245.836 453.33 245.58 453.273 245.086C453.216 244.591 453.197 243.841 453.13 242.89C453.13 242.402 453.102 241.861 453.045 241.265C452.978 240.676 452.855 240.03 452.75 239.365C452.646 238.699 452.522 237.91 452.398 237.112C452.241 236.259 452.038 235.415 451.79 234.584C450.717 230.252 448.989 226.108 446.668 222.296C443.64 217.218 439.658 212.774 434.94 209.21L432.954 207.727C432.251 207.261 431.51 206.843 430.787 206.397C430.065 205.95 429.333 205.446 428.535 205.095L426.14 203.945L424.924 203.365L423.65 202.899L421.018 201.949C420.134 201.654 419.212 201.464 418.3 201.217C417.386 200.95 416.456 200.741 415.515 200.59C413.591 200.229 411.645 200.004 409.689 199.915C408.692 199.915 407.694 199.782 406.686 199.792L403.636 199.953C403.122 199.953 402.609 199.953 402.096 200.048L400.557 200.286C399.53 200.457 398.494 200.58 397.458 200.79C395.374 201.256 393.324 201.859 391.319 202.595L389.789 203.156C389.532 203.251 389.276 203.337 389.029 203.441L388.287 203.793L385.313 205.237C384.362 205.76 383.412 206.378 382.462 206.948C381.987 207.242 381.511 207.509 381.036 207.841L379.687 208.858C377.847 210.219 376.101 211.701 374.46 213.296L372.122 215.881L371.533 216.527L371 217.221L369.946 218.637L368.862 220.006L367.912 221.517L366.961 223.047L366.496 223.807C366.353 224.073 366.23 224.349 366.097 224.615L364.538 227.865C364.12 228.996 363.702 230.127 363.284 231.277C360.117 240.702 360.117 250.904 363.284 260.329C363.702 261.47 364.12 262.61 364.529 263.741C364.937 264.872 365.574 265.908 366.097 266.991L366.486 267.799L366.952 268.559L367.902 270.09L368.853 271.601L369.917 273.017L370.972 274.433L371.495 275.126L372.084 275.782C372.873 276.637 373.652 277.502 374.431 278.358C376.069 279.952 377.812 281.435 379.649 282.796L381.008 283.813C381.454 284.155 381.958 284.411 382.433 284.763C383.384 285.333 384.334 285.941 385.284 286.474L388.259 287.909L389 288.26L389.76 288.555L391.291 289.116C393.295 289.849 395.346 290.449 397.43 290.912C398.466 291.13 399.511 291.244 400.528 291.415L402.068 291.653C402.581 291.72 403.094 291.72 403.607 291.748L406.658 291.91C407.665 291.91 408.663 291.824 409.661 291.796C411.616 291.703 413.562 291.478 415.487 291.121C416.426 290.963 417.356 290.75 418.271 290.484C419.222 290.237 420.105 290.047 420.989 289.762L423.584 288.812L424.867 288.346L426.083 287.766L428.468 286.616C429.267 286.255 429.98 285.742 430.721 285.324C431.462 284.906 432.184 284.449 432.888 283.993L434.883 282.501C439.621 278.943 443.626 274.503 446.677 269.424C448.985 265.588 450.693 261.422 451.743 257.07C451.989 256.241 452.192 255.401 452.351 254.551C452.474 253.743 452.589 252.993 452.703 252.289C452.817 251.586 452.931 250.949 452.997 250.389C453.064 249.828 453.054 249.258 453.083 248.773C453.149 247.823 453.187 247.081 453.225 246.578C453.263 246.074 453.282 245.827 453.282 245.827C453.282 245.827 453.282 246.074 453.282 246.578C453.282 247.081 453.235 247.823 453.197 248.773C453.197 249.267 453.149 249.809 453.13 250.398C453.111 250.987 452.95 251.643 452.855 252.299C452.76 252.955 452.646 253.753 452.522 254.561C452.375 255.416 452.181 256.263 451.942 257.098C450.89 261.449 449.182 265.615 446.877 269.453C443.85 274.597 439.854 279.106 435.111 282.729L433.106 284.231C432.403 284.696 431.662 285.124 430.93 285.58C430.198 286.036 429.466 286.531 428.668 286.892L426.254 288.061L425.028 288.64L423.745 289.116L421.132 290.066C420.238 290.37 419.317 290.56 418.395 290.807C417.459 291.082 416.507 291.298 415.544 291.453C413.601 291.817 411.635 292.048 409.661 292.147C408.711 292.147 407.656 292.29 406.639 292.271L403.56 292.119C403.037 292.119 402.524 292.119 402.001 292.024L400.452 291.786C399.416 291.615 398.361 291.501 397.325 291.282C395.219 290.818 393.146 290.215 391.12 289.477L389.57 288.907C389.314 288.812 389.048 288.726 388.801 288.621L388.05 288.26L385.047 286.816C384.096 286.284 383.146 285.666 382.148 285.086C381.663 284.782 381.198 284.525 380.704 284.183L379.335 283.157C377.474 281.783 375.709 280.285 374.051 278.671L371.685 276.077L371.086 275.421L370.554 274.708L369.489 273.283L368.416 271.857L367.465 270.327L366.515 268.778L366.04 268.008L365.64 267.191L364.063 263.912C363.645 262.772 363.217 261.622 362.799 260.462C359.593 250.936 359.593 240.623 362.799 231.096C363.227 229.946 363.645 228.797 364.063 227.656C364.481 226.516 365.118 225.461 365.65 224.368C365.783 224.102 365.907 223.826 366.049 223.56L366.515 222.781L367.465 221.241L368.416 219.711L369.489 218.286L370.554 216.86L371.096 216.147L371.685 215.492C372.483 214.627 373.272 213.752 374.051 212.897C375.713 211.289 377.478 209.79 379.335 208.411L380.704 207.385C381.16 207.043 381.654 206.786 382.148 206.435C383.099 205.855 384.049 205.237 385.047 204.705L388.05 203.261L388.801 202.899C389.048 202.795 389.314 202.709 389.57 202.614L391.12 202.054C393.143 201.313 395.213 200.706 397.316 200.238C398.361 200.029 399.416 199.906 400.452 199.735L402.001 199.507C402.514 199.44 403.037 199.44 403.56 199.402L406.629 199.25C407.646 199.25 408.663 199.336 409.661 199.374C411.635 199.473 413.6 199.705 415.544 200.067C416.506 200.227 417.458 200.443 418.395 200.714C419.345 200.97 420.238 201.16 421.132 201.455L423.745 202.405L425.028 202.88L426.254 203.46L428.668 204.629C429.466 205 430.179 205.513 430.93 205.95C431.681 206.387 432.403 206.824 433.106 207.29L435.111 208.801C439.845 212.406 443.835 216.895 446.858 222.021C449.169 225.856 450.881 230.022 451.933 234.375C452.17 235.21 452.363 236.057 452.512 236.913C452.636 237.72 452.741 238.481 452.845 239.184C452.95 239.887 453.064 240.524 453.121 241.085C453.178 241.645 453.168 242.225 453.187 242.71C453.187 243.66 453.254 244.401 453.273 244.915C453.292 245.428 453.33 245.836 453.33 245.836Z" fill="#263238"/>
<path d="M369.101 214.617C368.9 215.016 368.661 215.394 368.389 215.748C367.894 216.451 367.21 217.497 366.421 218.818C365.49 220.356 364.64 221.942 363.874 223.57C362.941 225.561 362.123 227.605 361.423 229.69C360.751 231.786 360.195 233.918 359.759 236.076C359.389 238.072 359.132 239.878 358.999 241.408C358.866 242.938 358.781 244.183 358.762 245.048C358.776 245.493 358.744 245.939 358.667 246.378C358.595 245.935 358.564 245.487 358.571 245.038C358.571 244.183 358.571 242.928 358.648 241.379C358.771 239.572 358.993 237.773 359.313 235.991C360.117 231.616 361.51 227.37 363.456 223.37C364.257 221.739 365.146 220.153 366.117 218.618C366.963 217.316 367.685 216.299 368.227 215.625C368.487 215.263 368.78 214.926 369.101 214.617Z" fill="white"/>
<path d="M109.096 235.112H124.136V241H101.8V196.52H109.096V235.112ZM145.534 241.576C142.206 241.576 139.198 240.829 136.51 239.336C133.822 237.8 131.71 235.667 130.174 232.936C128.638 230.163 127.87 226.963 127.87 223.336C127.87 219.752 128.659 216.573 130.238 213.8C131.816 211.027 133.971 208.893 136.702 207.4C139.432 205.907 142.483 205.16 145.854 205.16C149.224 205.16 152.275 205.907 155.006 207.4C157.736 208.893 159.891 211.027 161.47 213.8C163.048 216.573 163.838 219.752 163.838 223.336C163.838 226.92 163.027 230.099 161.406 232.872C159.784 235.645 157.566 237.8 154.75 239.336C151.976 240.829 148.904 241.576 145.534 241.576ZM145.534 235.24C147.411 235.24 149.16 234.792 150.782 233.896C152.446 233 153.79 231.656 154.814 229.864C155.838 228.072 156.35 225.896 156.35 223.336C156.35 220.776 155.859 218.621 154.878 216.872C153.896 215.08 152.595 213.736 150.974 212.84C149.352 211.944 147.603 211.496 145.726 211.496C143.848 211.496 142.099 211.944 140.478 212.84C138.899 213.736 137.64 215.08 136.702 216.872C135.763 218.621 135.294 220.776 135.294 223.336C135.294 227.133 136.254 230.077 138.174 232.168C140.136 234.216 142.59 235.24 145.534 235.24ZM185.258 205.16C187.989 205.16 190.399 205.715 192.49 206.824C194.623 207.891 196.287 209.235 197.482 210.856V205.736H204.842V241.576C204.842 244.819 204.159 247.699 202.794 250.216C201.429 252.776 199.445 254.781 196.842 256.232C194.282 257.683 191.21 258.408 187.626 258.408C182.847 258.408 178.879 257.277 175.722 255.016C172.565 252.797 170.773 249.768 170.346 245.928H177.578C178.133 247.763 179.306 249.235 181.098 250.344C182.933 251.496 185.109 252.072 187.626 252.072C190.57 252.072 192.938 251.176 194.73 249.384C196.565 247.592 197.482 244.989 197.482 241.576V235.688C196.245 237.352 194.559 238.76 192.426 239.912C190.335 241.021 187.946 241.576 185.258 241.576C182.186 241.576 179.37 240.808 176.81 239.272C174.293 237.693 172.287 235.517 170.794 232.744C169.343 229.928 168.618 226.749 168.618 223.208C168.618 219.667 169.343 216.531 170.794 213.8C172.287 211.069 174.293 208.957 176.81 207.464C179.37 205.928 182.186 205.16 185.258 205.16ZM197.482 223.336C197.482 220.904 196.97 218.792 195.946 217C194.965 215.208 193.663 213.843 192.042 212.904C190.421 211.965 188.671 211.496 186.794 211.496C184.917 211.496 183.167 211.965 181.546 212.904C179.925 213.8 178.602 215.144 177.578 216.936C176.597 218.685 176.106 220.776 176.106 223.208C176.106 225.64 176.597 227.773 177.578 229.608C178.602 231.443 179.925 232.851 181.546 233.832C183.21 234.771 184.959 235.24 186.794 235.24C188.671 235.24 190.421 234.771 192.042 233.832C193.663 232.893 194.965 231.528 195.946 229.736C196.97 227.901 197.482 225.768 197.482 223.336ZM218.137 201.064C216.814 201.064 215.705 200.616 214.809 199.72C213.913 198.824 213.465 197.715 213.465 196.392C213.465 195.069 213.913 193.96 214.809 193.064C215.705 192.168 216.814 191.72 218.137 191.72C219.417 191.72 220.505 192.168 221.401 193.064C222.297 193.96 222.745 195.069 222.745 196.392C222.745 197.715 222.297 198.824 221.401 199.72C220.505 200.616 219.417 201.064 218.137 201.064ZM221.721 205.736V241H214.425V205.736H221.721ZM249.092 205.16C251.865 205.16 254.34 205.736 256.516 206.888C258.735 208.04 260.463 209.747 261.7 212.008C262.937 214.269 263.556 217 263.556 220.2V241H256.324V221.288C256.324 218.131 255.535 215.72 253.956 214.056C252.377 212.349 250.223 211.496 247.492 211.496C244.761 211.496 242.585 212.349 240.964 214.056C239.385 215.72 238.596 218.131 238.596 221.288V241H231.3V205.736H238.596V209.768C239.791 208.317 241.305 207.187 243.14 206.376C245.017 205.565 247.001 205.16 249.092 205.16Z" fill="#252525"/>
<path d="M103.661 284.014L105.453 284L107.623 276.636L109.667 284H111.473L114.357 274.27H112.649L110.619 282.152L108.589 274.27H106.797L104.613 282.194L102.597 274.27H100.903L103.661 284.014ZM118.921 277.504C120.111 277.504 121.049 278.26 121.077 279.45H116.807C116.975 278.232 117.843 277.504 118.921 277.504ZM122.533 281.704H120.811C120.517 282.306 119.971 282.782 118.991 282.782C117.815 282.782 116.905 282.012 116.793 280.738H122.687C122.729 280.472 122.743 280.22 122.743 279.954C122.743 277.686 121.189 276.16 118.991 276.16C116.709 276.16 115.141 277.714 115.141 280.136C115.141 282.558 116.779 284.126 118.991 284.126C120.881 284.126 122.099 283.048 122.533 281.704ZM129.448 284H131.128L132.682 278.302L134.236 284H135.916L138.31 276.286H136.742L135.146 282.46L133.578 276.286H131.912L130.274 282.488L128.664 276.286H127.04L129.448 284ZM146.853 280.136C146.853 277.714 145.117 276.16 142.919 276.16C140.721 276.16 138.985 277.714 138.985 280.136C138.985 282.558 140.651 284.126 142.849 284.126C145.061 284.126 146.853 282.558 146.853 280.136ZM140.609 280.136C140.609 278.386 141.687 277.546 142.891 277.546C144.081 277.546 145.215 278.386 145.215 280.136C145.215 281.886 144.039 282.74 142.849 282.74C141.645 282.74 140.609 281.886 140.609 280.136ZM153.905 284H155.487V279.45C155.487 277.294 154.129 276.16 152.323 276.16C151.399 276.16 150.545 276.538 150.027 277.168V276.286H148.431V284H150.027V279.688C150.027 278.274 150.797 277.546 151.973 277.546C153.135 277.546 153.905 278.274 153.905 279.688V284ZM158.041 277.602L159.511 274.27H157.775L156.921 277.602H158.041ZM161.165 281.858C161.165 283.426 162.019 284 163.391 284H164.651V282.67H163.671C162.999 282.67 162.775 282.432 162.775 281.858V277.588H164.651V276.286H162.775V274.368H161.165V276.286H160.255V277.588H161.165V281.858ZM180.693 284H182.275V279.45C182.275 277.294 180.903 276.16 179.097 276.16C177.977 276.16 176.885 276.748 176.409 277.686C175.877 276.678 174.855 276.16 173.637 276.16C172.713 276.16 171.873 276.538 171.355 277.168V276.286H169.759V284H171.355V279.688C171.355 278.274 172.125 277.546 173.301 277.546C174.463 277.546 175.233 278.274 175.233 279.688V284H176.815V279.688C176.815 278.274 177.585 277.546 178.761 277.546C179.923 277.546 180.693 278.274 180.693 279.688V284ZM184.306 284H185.902V276.286H184.306V284ZM185.118 275.264C185.678 275.264 186.126 274.816 186.126 274.242C186.126 273.668 185.678 273.22 185.118 273.22C184.544 273.22 184.096 273.668 184.096 274.242C184.096 274.816 184.544 275.264 185.118 275.264ZM193.751 281.844C193.667 279.058 189.313 279.926 189.313 278.372C189.313 277.854 189.761 277.504 190.615 277.504C191.483 277.504 192.001 277.966 192.057 278.638H193.653C193.569 277.098 192.421 276.16 190.671 276.16C188.851 276.16 187.703 277.154 187.703 278.386C187.703 281.214 192.183 280.346 192.183 281.858C192.183 282.39 191.693 282.782 190.769 282.782C189.887 282.782 189.285 282.264 189.229 281.634H187.577C187.647 283.034 188.949 284.126 190.797 284.126C192.617 284.126 193.751 283.146 193.751 281.844ZM202.462 276.286H200.866V280.584C200.866 281.998 200.096 282.726 198.92 282.726C197.758 282.726 196.988 281.998 196.988 280.584V276.286H195.406V280.822C195.406 282.978 196.778 284.112 198.584 284.112C199.494 284.112 200.362 283.734 200.866 283.076V284H202.462V276.286ZM210.322 281.844C210.238 279.058 205.884 279.926 205.884 278.372C205.884 277.854 206.332 277.504 207.186 277.504C208.054 277.504 208.572 277.966 208.628 278.638H210.224C210.14 277.098 208.992 276.16 207.242 276.16C205.422 276.16 204.274 277.154 204.274 278.386C204.274 281.214 208.754 280.346 208.754 281.858C208.754 282.39 208.264 282.782 207.34 282.782C206.458 282.782 205.856 282.264 205.8 281.634H204.148C204.218 283.034 205.52 284.126 207.368 284.126C209.188 284.126 210.322 283.146 210.322 281.844ZM215.294 277.504C216.484 277.504 217.422 278.26 217.45 279.45H213.18C213.348 278.232 214.216 277.504 215.294 277.504ZM218.906 281.704H217.184C216.89 282.306 216.344 282.782 215.364 282.782C214.188 282.782 213.278 282.012 213.166 280.738H219.06C219.102 280.472 219.116 280.22 219.116 279.954C219.116 277.686 217.562 276.16 215.364 276.16C213.082 276.16 211.514 277.714 211.514 280.136C211.514 282.558 213.152 284.126 215.364 284.126C217.254 284.126 218.472 283.048 218.906 281.704ZM101.088 303.166L98.918 297.286H97.14L100.178 304.874L98.61 308.626H100.262L104.994 297.286H103.342L101.088 303.166ZM113.548 301.136C113.548 298.714 111.812 297.16 109.614 297.16C107.416 297.16 105.68 298.714 105.68 301.136C105.68 303.558 107.346 305.126 109.544 305.126C111.756 305.126 113.548 303.558 113.548 301.136ZM107.304 301.136C107.304 299.386 108.382 298.546 109.586 298.546C110.776 298.546 111.91 299.386 111.91 301.136C111.91 302.886 110.734 303.74 109.544 303.74C108.34 303.74 107.304 302.886 107.304 301.136ZM122.112 297.286H120.516V301.584C120.516 302.998 119.746 303.726 118.57 303.726C117.408 303.726 116.638 302.998 116.638 301.584V297.286H115.056V301.822C115.056 303.978 116.428 305.112 118.234 305.112C119.144 305.112 120.012 304.734 120.516 304.076V305H122.112V297.286ZM125.814 300.94C125.814 299.302 126.542 298.812 127.718 298.812H128.124V297.16C127.032 297.16 126.262 297.636 125.814 298.406V297.286H124.218V305H125.814V300.94ZM132.696 301.108C132.696 303.488 134.306 305.126 136.336 305.126C137.596 305.126 138.52 304.538 139.01 303.838V305H140.62V294.64H139.01V298.364C138.422 297.636 137.358 297.16 136.35 297.16C134.306 297.16 132.696 298.728 132.696 301.108ZM139.01 301.136C139.01 302.802 137.876 303.74 136.672 303.74C135.482 303.74 134.334 302.774 134.334 301.108C134.334 299.442 135.482 298.546 136.672 298.546C137.876 298.546 139.01 299.484 139.01 301.136ZM142.184 301.108C142.184 303.488 143.794 305.126 145.796 305.126C147.084 305.126 148.008 304.51 148.498 303.852V305H150.108V297.286H148.498V298.406C148.022 297.776 147.126 297.16 145.824 297.16C143.794 297.16 142.184 298.728 142.184 301.108ZM148.498 301.136C148.498 302.802 147.364 303.74 146.16 303.74C144.97 303.74 143.822 302.774 143.822 301.108C143.822 299.442 144.97 298.546 146.16 298.546C147.364 298.546 148.498 299.484 148.498 301.136ZM152.456 302.858C152.456 304.426 153.31 305 154.682 305H155.942V303.67H154.962C154.29 303.67 154.066 303.432 154.066 302.858V298.588H155.942V297.286H154.066V295.368H152.456V297.286H151.546V298.588H152.456V302.858ZM156.881 301.108C156.881 303.488 158.491 305.126 160.493 305.126C161.781 305.126 162.705 304.51 163.195 303.852V305H164.805V297.286H163.195V298.406C162.719 297.776 161.823 297.16 160.521 297.16C158.491 297.16 156.881 298.728 156.881 301.108ZM163.195 301.136C163.195 302.802 162.061 303.74 160.857 303.74C159.667 303.74 158.519 302.774 158.519 301.108C158.519 299.442 159.667 298.546 160.857 298.546C162.061 298.546 163.195 299.484 163.195 301.136ZM167.392 302.06H168.722L168.904 295.27H167.21L167.392 302.06ZM169.114 304.076C169.114 303.502 168.666 303.054 168.106 303.054C167.532 303.054 167.084 303.502 167.084 304.076C167.084 304.65 167.532 305.098 168.106 305.098C168.666 305.098 169.114 304.65 169.114 304.076ZM177.43 301.472V305H179.026V301.472L182.246 295.27H180.482L178.228 300.044L175.974 295.27H174.196L177.43 301.472ZM190.863 301.136C190.863 298.714 189.127 297.16 186.929 297.16C184.731 297.16 182.995 298.714 182.995 301.136C182.995 303.558 184.661 305.126 186.859 305.126C189.071 305.126 190.863 303.558 190.863 301.136ZM184.619 301.136C184.619 299.386 185.697 298.546 186.901 298.546C188.091 298.546 189.225 299.386 189.225 301.136C189.225 302.886 188.049 303.74 186.859 303.74C185.655 303.74 184.619 302.886 184.619 301.136ZM199.427 297.286H197.831V301.584C197.831 302.998 197.061 303.726 195.885 303.726C194.723 303.726 193.953 302.998 193.953 301.584V297.286H192.371V301.822C192.371 303.978 193.743 305.112 195.549 305.112C196.459 305.112 197.327 304.734 197.831 304.076V305H199.427V297.286ZM203.128 300.94C203.128 299.302 203.856 298.812 205.032 298.812H205.438V297.16C204.346 297.16 203.576 297.636 203.128 298.406V297.286H201.532V305H203.128V300.94ZM104.616 323.242C104.616 319.686 99.464 321.058 99.464 318.86C99.464 317.922 100.178 317.474 101.102 317.502C102.11 317.53 102.684 318.132 102.74 318.79H104.504C104.364 317.124 103.048 316.144 101.186 316.144C99.198 316.144 97.84 317.208 97.84 318.916C97.84 322.5 103.006 320.974 103.006 323.326C103.006 324.152 102.376 324.754 101.256 324.754C100.15 324.754 99.59 324.11 99.52 323.312H97.812C97.812 325.034 99.31 326.098 101.256 326.098C103.426 326.098 104.616 324.698 104.616 323.242ZM105.967 322.108C105.967 324.488 107.577 326.126 109.579 326.126C110.867 326.126 111.791 325.51 112.281 324.852V326H113.891V318.286H112.281V319.406C111.805 318.776 110.909 318.16 109.607 318.16C107.577 318.16 105.967 319.728 105.967 322.108ZM112.281 322.136C112.281 323.802 111.147 324.74 109.943 324.74C108.753 324.74 107.605 323.774 107.605 322.108C107.605 320.442 108.753 319.546 109.943 319.546C111.147 319.546 112.281 320.484 112.281 322.136ZM115.078 318.286L118.004 326H119.908L122.847 318.286H121.154L118.97 324.572L116.785 318.286H115.078ZM124.054 326H125.65V318.286H124.054V326ZM124.866 317.264C125.426 317.264 125.874 316.816 125.874 316.242C125.874 315.668 125.426 315.22 124.866 315.22C124.292 315.22 123.844 315.668 123.844 316.242C123.844 316.816 124.292 317.264 124.866 317.264ZM133.219 326H134.801V321.45C134.801 319.294 133.443 318.16 131.637 318.16C130.713 318.16 129.859 318.538 129.341 319.168V318.286H127.745V326H129.341V321.688C129.341 320.274 130.111 319.546 131.287 319.546C132.449 319.546 133.219 320.274 133.219 321.688V326ZM136.305 322.108C136.305 324.488 137.915 326.126 139.945 326.126C141.205 326.126 142.129 325.496 142.619 324.838V326.126C142.619 327.666 141.695 328.422 140.463 328.422C139.357 328.422 138.503 327.876 138.265 327.078H136.683C136.879 328.786 138.405 329.808 140.463 329.808C142.871 329.808 144.229 328.226 144.229 326.126V318.286H142.619V319.406C142.143 318.748 141.205 318.16 139.945 318.16C137.915 318.16 136.305 319.728 136.305 322.108ZM142.619 322.136C142.619 323.802 141.485 324.74 140.281 324.74C139.091 324.74 137.943 323.774 137.943 322.108C137.943 320.442 139.091 319.546 140.281 319.546C141.485 319.546 142.619 320.484 142.619 322.136ZM156.528 323.242C156.528 319.686 151.376 321.058 151.376 318.86C151.376 317.922 152.09 317.474 153.014 317.502C154.022 317.53 154.596 318.132 154.652 318.79H156.416C156.276 317.124 154.96 316.144 153.098 316.144C151.11 316.144 149.752 317.208 149.752 318.916C149.752 322.5 154.918 320.974 154.918 323.326C154.918 324.152 154.288 324.754 153.168 324.754C152.062 324.754 151.502 324.11 151.432 323.312H149.724C149.724 325.034 151.222 326.098 153.168 326.098C155.338 326.098 156.528 324.698 156.528 323.242ZM161.659 319.504C162.849 319.504 163.787 320.26 163.815 321.45H159.545C159.713 320.232 160.581 319.504 161.659 319.504ZM165.271 323.704H163.549C163.255 324.306 162.709 324.782 161.729 324.782C160.553 324.782 159.643 324.012 159.531 322.738H165.425C165.467 322.472 165.481 322.22 165.481 321.954C165.481 319.686 163.927 318.16 161.729 318.16C159.447 318.16 157.879 319.714 157.879 322.136C157.879 324.558 159.517 326.126 161.729 326.126C163.619 326.126 164.837 325.048 165.271 323.704ZM166.52 322.136C166.52 324.558 168.088 326.126 170.3 326.126C172.19 326.126 173.422 325.076 173.856 323.564H172.134C171.84 324.362 171.252 324.782 170.3 324.782C169.012 324.782 168.158 323.83 168.158 322.136C168.158 320.456 169.012 319.504 170.3 319.504C171.252 319.504 171.868 319.98 172.134 320.722H173.856C173.422 319.098 172.19 318.16 170.3 318.16C168.088 318.16 166.52 319.728 166.52 322.136ZM177.042 321.94C177.042 320.302 177.77 319.812 178.946 319.812H179.352V318.16C178.26 318.16 177.49 318.636 177.042 319.406V318.286H175.446V326H177.042V321.94ZM184.068 319.504C185.258 319.504 186.196 320.26 186.224 321.45H181.954C182.122 320.232 182.99 319.504 184.068 319.504ZM187.68 323.704H185.958C185.664 324.306 185.118 324.782 184.138 324.782C182.962 324.782 182.052 324.012 181.94 322.738H187.834C187.876 322.472 187.89 322.22 187.89 321.954C187.89 319.686 186.336 318.16 184.138 318.16C181.856 318.16 180.288 319.714 180.288 322.136C180.288 324.558 181.926 326.126 184.138 326.126C186.028 326.126 187.246 325.048 187.68 323.704ZM189.712 323.858C189.712 325.426 190.566 326 191.938 326H193.198V324.67H192.218C191.546 324.67 191.322 324.432 191.322 323.858V319.588H193.198V318.286H191.322V316.368H189.712V318.286H188.802V319.588H189.712V323.858ZM200.423 323.844C200.339 321.058 195.985 321.926 195.985 320.372C195.985 319.854 196.433 319.504 197.287 319.504C198.155 319.504 198.673 319.966 198.729 320.638H200.325C200.241 319.098 199.093 318.16 197.343 318.16C195.523 318.16 194.375 319.154 194.375 320.386C194.375 323.214 198.855 322.346 198.855 323.858C198.855 324.39 198.365 324.782 197.441 324.782C196.559 324.782 195.957 324.264 195.901 323.634H194.249C194.319 325.034 195.621 326.126 197.469 326.126C199.289 326.126 200.423 325.146 200.423 323.844ZM205.252 322.108C205.252 324.488 206.862 326.126 208.864 326.126C210.152 326.126 211.076 325.51 211.566 324.852V326H213.176V318.286H211.566V319.406C211.09 318.776 210.194 318.16 208.892 318.16C206.862 318.16 205.252 319.728 205.252 322.108ZM211.566 322.136C211.566 323.802 210.432 324.74 209.228 324.74C208.038 324.74 206.89 323.774 206.89 322.108C206.89 320.442 208.038 319.546 209.228 319.546C210.432 319.546 211.566 320.484 211.566 322.136ZM216.869 321.94C216.869 320.302 217.597 319.812 218.773 319.812H219.179V318.16C218.087 318.16 217.317 318.636 216.869 319.406V318.286H215.273V326H216.869V321.94ZM223.894 319.504C225.084 319.504 226.022 320.26 226.05 321.45H221.78C221.948 320.232 222.816 319.504 223.894 319.504ZM227.506 323.704H225.784C225.49 324.306 224.944 324.782 223.964 324.782C222.788 324.782 221.878 324.012 221.766 322.738H227.66C227.702 322.472 227.716 322.22 227.716 321.954C227.716 319.686 226.162 318.16 223.964 318.16C221.682 318.16 220.114 319.714 220.114 322.136C220.114 324.558 221.752 326.126 223.964 326.126C225.854 326.126 227.072 325.048 227.506 323.704ZM103.804 344.844C103.72 342.058 99.366 342.926 99.366 341.372C99.366 340.854 99.814 340.504 100.668 340.504C101.536 340.504 102.054 340.966 102.11 341.638H103.706C103.622 340.098 102.474 339.16 100.724 339.16C98.904 339.16 97.756 340.154 97.756 341.386C97.756 344.214 102.236 343.346 102.236 344.858C102.236 345.39 101.746 345.782 100.822 345.782C99.94 345.782 99.338 345.264 99.282 344.634H97.63C97.7 346.034 99.002 347.126 100.85 347.126C102.67 347.126 103.804 346.146 103.804 344.844ZM104.997 343.108C104.997 345.488 106.607 347.126 108.609 347.126C109.897 347.126 110.821 346.51 111.311 345.852V347H112.921V339.286H111.311V340.406C110.835 339.776 109.939 339.16 108.637 339.16C106.607 339.16 104.997 340.728 104.997 343.108ZM111.311 343.136C111.311 344.802 110.177 345.74 108.973 345.74C107.783 345.74 106.635 344.774 106.635 343.108C106.635 341.442 107.783 340.546 108.973 340.546C110.177 340.546 111.311 341.484 111.311 343.136ZM115.213 347H116.823V340.588H118.251V339.286H116.823V338.74C116.823 337.858 117.159 337.522 118.139 337.522V336.192C116.123 336.192 115.213 336.962 115.213 338.74V339.286H114.303V340.588H115.213V347ZM122.913 340.504C124.103 340.504 125.041 341.26 125.069 342.45H120.799C120.967 341.232 121.835 340.504 122.913 340.504ZM126.525 344.704H124.803C124.509 345.306 123.963 345.782 122.983 345.782C121.807 345.782 120.897 345.012 120.785 343.738H126.679C126.721 343.472 126.735 343.22 126.735 342.954C126.735 340.686 125.181 339.16 122.983 339.16C120.701 339.16 119.133 340.714 119.133 343.136C119.133 345.558 120.771 347.126 122.983 347.126C124.873 347.126 126.091 346.048 126.525 344.704ZM133.441 347H135.121L136.675 341.302L138.229 347H139.909L142.303 339.286H140.735L139.139 345.46L137.571 339.286H135.905L134.267 345.488L132.657 339.286H131.033L133.441 347ZM143.495 347H145.091V339.286H143.495V347ZM144.307 338.264C144.867 338.264 145.315 337.816 145.315 337.242C145.315 336.668 144.867 336.22 144.307 336.22C143.733 336.22 143.285 336.668 143.285 337.242C143.285 337.816 143.733 338.264 144.307 338.264ZM147.439 344.858C147.439 346.426 148.293 347 149.665 347H150.925V345.67H149.945C149.273 345.67 149.049 345.432 149.049 344.858V340.588H150.925V339.286H149.049V337.368H147.439V339.286H146.529V340.588H147.439V344.858ZM152.396 347H153.992V342.688C153.992 341.274 154.762 340.546 155.938 340.546C157.1 340.546 157.87 341.274 157.87 342.688V347H159.452V342.45C159.452 340.294 158.108 339.16 156.386 339.16C155.392 339.16 154.524 339.538 153.992 340.182V336.64H152.396V347ZM172.11 339.286H170.514V343.584C170.514 344.998 169.744 345.726 168.568 345.726C167.406 345.726 166.636 344.998 166.636 343.584V339.286H165.054V343.822C165.054 345.978 166.426 347.112 168.232 347.112C169.142 347.112 170.01 346.734 170.514 346.076V347H172.11V339.286ZM179.97 344.844C179.886 342.058 175.532 342.926 175.532 341.372C175.532 340.854 175.98 340.504 176.834 340.504C177.702 340.504 178.22 340.966 178.276 341.638H179.872C179.788 340.098 178.64 339.16 176.89 339.16C175.07 339.16 173.922 340.154 173.922 341.386C173.922 344.214 178.402 343.346 178.402 344.858C178.402 345.39 177.912 345.782 176.988 345.782C176.106 345.782 175.504 345.264 175.448 344.634H173.796C173.866 346.034 175.168 347.126 177.016 347.126C178.836 347.126 179.97 346.146 179.97 344.844ZM182.185 344.06H183.515L183.697 337.27H182.003L182.185 344.06ZM183.907 346.076C183.907 345.502 183.459 345.054 182.899 345.054C182.325 345.054 181.877 345.502 181.877 346.076C181.877 346.65 182.325 347.098 182.899 347.098C183.459 347.098 183.907 346.65 183.907 346.076Z" fill="black"/>
</svg>
