<svg width="206" height="414" viewBox="0 0 206 414" fill="none" xmlns="http://www.w3.org/2000/svg">
<path d="M1.86663 383.063C1.89049 387.414 2.81694 391.719 4.65134 395.668C6.61997 399.908 9.58603 403.657 13.2525 406.553C16.8509 409.396 21.1067 411.388 25.5928 412.333C27.9843 412.837 30.3944 412.978 32.829 412.978C35.4651 412.978 38.1013 412.978 40.7381 412.978C45.4371 412.978 50.1362 412.978 54.8352 412.978C60.972 412.978 67.1087 412.978 73.2455 412.978C80.2281 412.978 87.2114 412.978 94.1941 412.978C101.44 412.978 108.687 412.978 115.934 412.978C122.819 412.978 129.704 412.978 136.589 412.978C142.477 412.978 148.365 412.978 154.253 412.978C158.604 412.978 162.956 412.978 167.307 412.978C169.48 412.978 171.652 412.978 173.825 412.978C176.915 412.978 179.97 412.584 182.931 411.683C187.349 410.339 191.439 407.963 194.791 404.784C198.157 401.59 200.758 397.623 202.34 393.26C203.533 389.971 204.125 386.494 204.132 382.997C204.134 382.194 204.132 381.39 204.132 380.588C204.132 378.702 204.132 376.816 204.132 374.93C204.132 372.052 204.132 369.173 204.132 366.295C204.132 362.528 204.132 358.761 204.132 354.994C204.132 350.466 204.132 345.937 204.132 341.408C204.132 336.168 204.132 330.928 204.132 325.688C204.132 319.858 204.132 314.03 204.132 308.201C204.132 301.883 204.132 295.566 204.132 289.248C204.132 282.58 204.132 275.911 204.132 269.243C204.132 262.251 204.132 255.257 204.132 248.265C204.132 241.084 204.132 233.902 204.132 226.721C204.132 219.471 204.132 212.221 204.132 204.972C204.132 197.733 204.132 190.495 204.132 183.256C204.132 176.109 204.132 168.963 204.132 161.815C204.132 154.88 204.132 147.945 204.132 141.009C204.132 134.421 204.132 127.832 204.132 121.244C204.132 115.03 204.132 108.815 204.132 102.601C204.132 96.8986 204.132 91.196 204.132 85.4933C204.132 80.4025 204.132 75.311 204.132 70.2202C204.132 65.8629 204.132 61.5056 204.132 57.1478C204.132 53.576 204.132 50.0042 204.132 46.4319C204.132 43.7715 204.132 41.1112 204.132 38.4509C204.132 36.8053 204.132 35.1603 204.132 33.5146C204.132 32.8246 204.138 32.134 204.128 31.444C204.063 27.0838 203.034 22.751 201.13 18.8276C199.078 14.5987 196.023 10.8741 192.275 8.03833C188.67 5.31115 184.456 3.41902 180.021 2.54339C177.698 2.08438 175.361 1.97754 173.002 1.97754C170.276 1.97754 167.55 1.97754 164.823 1.97754C160.057 1.97754 155.291 1.97754 150.525 1.97754C144.363 1.97754 138.201 1.97754 132.039 1.97754C125.017 1.97754 117.995 1.97754 110.974 1.97754C103.73 1.97754 96.486 1.97754 89.2427 1.97754C82.3835 1.97754 75.5243 1.97754 68.6651 1.97754C62.8261 1.97754 56.9864 1.97754 51.1473 1.97754C46.8683 1.97754 42.5886 1.97754 38.3095 1.97754C36.2323 1.97754 34.1551 1.97754 32.0779 1.97754C28.8488 1.97754 25.6488 2.43057 22.5718 3.42678C18.1913 4.84498 14.1652 7.27789 10.8698 10.4951C7.52852 13.7577 4.97467 17.8094 3.46837 22.2305C2.39756 25.3731 1.872 28.6685 1.86603 31.9866C1.86424 32.8294 1.86603 33.6716 1.86603 34.5144C1.86603 36.4436 1.86603 38.3727 1.86603 40.3018C1.86603 43.2158 1.86603 46.1304 1.86603 49.0444C1.86603 52.8436 1.86603 56.6422 1.86603 60.4414C1.86603 64.998 1.86603 69.5547 1.86603 74.1113C1.86603 79.3758 1.86603 84.6404 1.86603 89.9055C1.86603 95.755 1.86603 101.604 1.86603 107.454C1.86603 113.77 1.86603 120.086 1.86603 126.403C1.86603 133.102 1.86603 139.801 1.86603 146.5C1.86603 153.502 1.86603 160.503 1.86603 167.506C1.86603 174.692 1.86603 181.879 1.86603 189.065C1.86603 196.296 1.86603 203.528 1.86603 210.759C1.86603 218.015 1.86603 225.27 1.86603 232.527C1.86603 239.667 1.86603 246.808 1.86603 253.949C1.86603 260.874 1.86603 267.8 1.86603 274.725C1.86603 281.3 1.86603 287.874 1.86603 294.449C1.86603 300.645 1.86603 306.842 1.86603 313.038C1.86603 318.72 1.86603 324.401 1.86603 330.082C1.86603 335.135 1.86603 340.187 1.86603 345.241C1.86603 349.582 1.86603 353.923 1.86603 358.265C1.86603 361.803 1.86603 365.342 1.86603 368.881C1.86603 371.505 1.86603 374.128 1.86603 376.751C1.86603 378.353 1.86603 379.955 1.86603 381.557C1.86663 382.059 1.86663 382.561 1.86663 383.063Z" stroke="#EA6237" stroke-opacity="0.5" stroke-width="2" stroke-miterlimit="10" stroke-linecap="round" stroke-linejoin="round"/>
<path d="M124.908 18.2844C124.907 16.9202 124.027 15.6708 122.743 15.2105C121.459 14.7508 119.984 15.1584 119.118 16.2124C118.253 17.2664 118.14 18.7918 118.84 19.9612C119.541 21.1312 120.939 21.7515 122.277 21.4866C123.61 21.2224 124.664 20.1225 124.87 18.7794C124.895 18.6156 124.908 18.45 124.908 18.2844Z" stroke="#EA6237" stroke-opacity="0.5" stroke-width="2" stroke-miterlimit="10" stroke-linecap="round" stroke-linejoin="round"/>
<path d="M112.426 18.2716C112.426 17.2347 111.801 16.301 110.927 16.036C110.575 15.9292 110.205 15.9588 109.844 15.9588C108.881 15.9588 107.918 15.9588 106.955 15.9588C104.066 15.9588 101.178 15.9588 98.289 15.9588C96.7835 15.9588 95.0804 15.9589 93.6939 15.9712C91.6898 16.217 91.2397 19.4552 93.0908 20.3888C93.4233 20.5561 93.7623 20.583 94.1187 20.5843C94.8988 20.5878 95.6794 20.5843 96.4595 20.5843C99.2982 20.5843 102.137 20.5843 104.976 20.5843C106.779 20.5843 108.593 20.6532 110.396 20.5843C111.26 20.5513 112.033 19.9771 112.318 19.0166C112.39 18.777 112.426 18.5243 112.426 18.2716Z" stroke="#EA6237" stroke-opacity="0.5" stroke-width="2" stroke-miterlimit="10" stroke-linecap="round" stroke-linejoin="round"/>
<path d="M54.543 13.1728C49.3297 13.1728 44.1163 13.1728 38.903 13.1728C36.5851 13.1728 34.2673 13.1716 31.9494 13.1728C30.3377 13.1734 28.7433 13.333 27.177 13.7203C23.4362 14.6451 20.0251 16.7484 17.5197 19.6687C15.0143 22.5895 13.4587 26.276 13.1218 30.1055C13.0369 31.066 13.0495 32.0271 13.0495 32.99C13.0495 34.4689 13.0495 35.9471 13.0495 37.426C13.0495 39.8839 13.0495 42.3423 13.0495 44.8002C13.0495 48.1548 13.0495 51.5094 13.0495 54.8634C13.0495 59.0141 13.0495 63.1653 13.0495 67.316C13.0495 72.1548 13.0495 76.9931 13.0495 81.8319C13.0495 87.275 13.0495 92.7186 13.0495 98.1617C13.0495 104.133 13.0495 110.105 13.0495 116.076C13.0495 122.467 13.0495 128.858 13.0495 135.249C13.0495 141.947 13.0495 148.643 13.0495 155.341C13.0495 162.267 13.0495 169.195 13.0495 176.121C13.0495 183.224 13.0495 190.327 13.0495 197.429C13.0495 204.535 13.0495 211.641 13.0495 218.746C13.0495 225.801 13.0495 232.855 13.0495 239.909C13.0495 246.818 13.0495 253.727 13.0495 260.636C13.0495 267.343 13.0495 274.05 13.0495 280.756C13.0495 287.093 13.0495 293.429 13.0495 299.764C13.0495 305.674 13.0495 311.584 13.0495 317.494C13.0495 322.884 13.0495 328.273 13.0495 333.663C13.0495 338.465 13.0495 343.265 13.0495 348.067C13.0495 352.131 13.0495 356.197 13.0495 360.262C13.0495 363.526 13.0495 366.79 13.0495 370.053C13.0495 372.428 13.0495 374.802 13.0495 377.177C13.0495 378.557 13.0495 379.937 13.0495 381.318C13.0495 382.57 13.0698 383.813 13.2574 385.057C13.8279 388.84 15.5866 392.403 18.2437 395.162C20.9128 397.932 24.4362 399.834 28.223 400.542C30.036 400.881 31.8485 400.863 33.6807 400.863C36.6723 400.863 39.664 400.863 42.6557 400.863C47.525 400.863 52.3948 400.863 57.2641 400.863C63.4613 400.863 69.6586 400.863 75.8558 400.863C82.7956 400.863 89.736 400.863 96.6758 400.863C103.765 400.863 110.856 400.863 117.946 400.863C124.635 400.863 131.325 400.863 138.014 400.863C143.763 400.863 149.511 400.863 155.26 400.863C159.432 400.863 163.605 400.863 167.777 400.863C169.84 400.863 171.902 400.863 173.964 400.863C176.797 400.863 179.567 400.335 182.147 399.147C185.658 397.529 188.612 394.811 190.521 391.458C192.119 388.653 192.934 385.47 192.946 382.248C192.948 381.502 192.946 380.757 192.946 380.012C192.946 378.222 192.946 376.432 192.946 374.643C192.946 371.885 192.946 369.127 192.946 366.369C192.946 362.767 192.946 359.165 192.946 355.563C192.946 351.198 192.946 346.833 192.946 342.468C192.946 337.419 192.946 332.37 192.946 327.32C192.946 321.693 192.946 316.064 192.946 310.436C192.946 304.341 192.946 298.246 192.946 292.151C192.946 285.669 192.946 279.185 192.946 272.702C192.946 265.906 192.946 259.109 192.946 252.311C192.946 245.313 192.946 238.314 192.946 231.315C192.946 224.229 192.946 217.142 192.946 210.056C192.946 202.956 192.946 195.856 192.946 188.757C192.946 181.698 192.946 174.64 192.946 167.582C192.946 160.737 192.946 153.893 192.946 147.048C192.946 140.472 192.946 133.895 192.946 127.319C192.946 121.103 192.946 114.889 192.946 108.674C192.946 102.883 192.946 97.0921 192.946 91.3017C192.946 86.094 192.946 80.8857 192.946 75.6781C192.946 71.1127 192.946 66.5479 192.946 61.9826C192.946 58.1537 192.946 54.3248 192.946 50.4959C192.946 47.4827 192.946 44.4695 192.946 41.4563C192.946 39.3864 192.946 37.3164 192.946 35.2464C192.946 34.1942 192.946 33.1419 192.946 32.089C192.946 29.8618 192.63 27.6685 191.885 25.5622C190.598 21.9245 188.167 18.7344 184.998 16.5238C181.876 14.3466 178.133 13.1889 174.328 13.1722C169.079 13.1495 163.829 13.1722 158.58 13.1722C156.281 13.1722 153.981 13.1698 151.682 13.1722C150.816 13.1734 150.003 13.3509 149.444 14.0665C148.53 15.2344 148.641 17.0154 148.318 18.3882C147.879 20.2574 147.144 22.111 145.875 23.5804C143.775 26.012 140.678 26.2097 137.623 26.2097C132.049 26.2097 126.476 26.2097 120.902 26.2097C115.244 26.2097 109.587 26.2097 103.93 26.2097C101.058 26.2097 98.1849 26.2097 95.3127 26.2097C88.5694 26.2097 81.8262 26.2097 75.0823 26.2097C72.7967 26.2097 70.5118 26.2097 68.2262 26.2097C66.9609 26.2097 65.8419 26.5179 64.5993 26.2319C60.7881 25.3542 58.6154 22.2028 57.7223 18.5771C57.2277 16.5649 57.4445 13.1692 54.543 13.1728Z" stroke="#EA6237" stroke-opacity="0.5" stroke-width="2" stroke-miterlimit="10" stroke-linecap="round" stroke-linejoin="round"/>
<mask id="mask0_527_13103" style="mask-type:alpha" maskUnits="userSpaceOnUse" x="13" y="2" width="180" height="393">
<path d="M13.0012 366.395C13.0225 370.556 13.8469 374.672 15.4794 378.449C17.2313 382.502 19.8708 386.087 23.1335 388.857C26.3358 391.575 30.1231 393.48 34.1153 394.384C36.2435 394.865 38.3883 395 40.5548 395C42.9007 395 45.2467 395 47.5932 395C51.7749 395 55.9566 395 60.1383 395C65.5994 395 71.0606 395 76.5217 395C82.7356 395 88.95 395 95.164 395C101.613 395 108.061 395 114.51 395C120.637 395 126.764 395 132.891 395C138.131 395 143.371 395 148.61 395C152.483 395 156.355 395 160.228 395C162.161 395 164.095 395 166.028 395C168.778 395 171.497 394.624 174.132 393.762C178.063 392.477 181.703 390.205 184.686 387.165C187.681 384.111 189.996 380.318 191.404 376.146C192.466 373.001 192.992 369.676 192.998 366.332C193 365.564 192.998 364.796 192.998 364.029C192.998 362.226 192.998 360.422 192.998 358.619C192.998 355.867 192.998 353.114 192.998 350.362C192.998 346.76 192.998 343.158 192.998 339.556C192.998 335.226 192.998 330.896 192.998 326.565C192.998 321.555 192.998 316.544 192.998 311.533C192.998 305.959 192.998 300.386 192.998 294.812C192.998 288.771 192.998 282.73 192.998 276.69C192.998 270.313 192.998 263.937 192.998 257.56C192.998 250.874 192.998 244.187 192.998 237.501C192.998 230.634 192.998 223.767 192.998 216.901C192.998 209.968 192.998 203.036 192.998 196.104C192.998 189.182 192.998 182.261 192.998 175.339C192.998 168.505 192.998 161.672 192.998 154.838C192.998 148.206 192.998 141.575 192.998 134.943C192.998 128.643 192.998 122.343 192.998 116.043C192.998 110.101 192.998 104.159 192.998 98.2169C192.998 92.764 192.998 87.3111 192.998 81.8582C192.998 76.9903 192.998 72.1218 192.998 67.2539C192.998 63.0875 192.998 58.921 192.998 54.754C192.998 51.3387 192.998 47.9233 192.998 44.5074C192.998 41.9636 192.998 39.4198 192.998 36.876C192.998 35.3024 192.998 33.7295 192.998 32.1559C192.998 31.4961 193.004 30.8358 192.995 30.176C192.937 26.0067 192.021 21.8637 190.327 18.1121C188.501 14.0684 185.782 10.507 182.446 7.79535C179.238 5.18761 175.488 3.37835 171.542 2.54107C169.474 2.10216 167.395 2 165.296 2C162.87 2 160.444 2 158.017 2C153.776 2 149.535 2 145.293 2C139.81 2 134.326 2 128.842 2C122.594 2 116.345 2 110.096 2C103.65 2 97.2036 2 90.7577 2C84.6537 2 78.5496 2 72.4456 2C67.2494 2 62.0526 2 56.8564 2C53.0484 2 49.2399 2 45.432 2C43.5835 2 41.7349 2 39.8864 2C37.0128 2 34.1652 2.43319 31.4269 3.38577C27.5287 4.74186 23.9458 7.06822 21.0132 10.1445C18.0398 13.2642 15.7671 17.1385 14.4266 21.366C13.4737 24.3709 13.006 27.522 13.0007 30.6948C12.9991 31.5007 13.0007 32.306 13.0007 33.1119C13.0007 34.9566 13.0007 36.8012 13.0007 38.6459C13.0007 41.4322 13.0007 44.2192 13.0007 47.0056C13.0007 50.6384 13.0007 54.2706 13.0007 57.9034C13.0007 62.2605 13.0007 66.6175 13.0007 70.9746C13.0007 76.0086 13.0007 81.0426 13.0007 86.0771C13.0007 91.6704 13.0007 97.2637 13.0007 102.857C13.0007 108.897 13.0007 114.936 13.0007 120.976C13.0007 127.381 13.0007 133.787 13.0007 140.193C13.0007 146.888 13.0007 153.583 13.0007 160.279C13.0007 167.15 13.0007 174.022 13.0007 180.894C13.0007 187.809 13.0007 194.723 13.0007 201.638C13.0007 208.576 13.0007 215.514 13.0007 222.452C13.0007 229.28 13.0007 236.108 13.0007 242.936C13.0007 249.558 13.0007 256.18 13.0007 262.802C13.0007 269.089 13.0007 275.376 13.0007 281.662C13.0007 287.587 13.0007 293.513 13.0007 299.438C13.0007 304.87 13.0007 310.302 13.0007 315.735C13.0007 320.566 13.0007 325.398 13.0007 330.23C13.0007 334.381 13.0007 338.532 13.0007 342.683C13.0007 346.067 13.0007 349.451 13.0007 352.835C13.0007 355.343 13.0007 357.852 13.0007 360.36C13.0007 361.892 13.0007 363.424 13.0007 364.955C13.0012 365.435 13.0012 365.915 13.0012 366.395Z" fill="white"/>
</mask>
<g mask="url(#mask0_527_13103)">
<path d="M29.0646 25.9367C28.8597 25.8562 28.7024 25.7391 28.5927 25.5855C28.4829 25.4318 28.428 25.2452 28.428 25.0257C28.428 24.8282 28.4774 24.6508 28.5762 24.4934C28.675 24.3325 28.8213 24.2063 29.0152 24.1148C29.2128 24.0197 29.4505 23.9721 29.7286 23.9721C30.0066 23.9721 30.2426 24.0197 30.4365 24.1148C30.634 24.2063 30.7822 24.3325 30.881 24.4934C30.9834 24.6508 31.0346 24.8282 31.0346 25.0257C31.0346 25.2379 30.9779 25.4245 30.8645 25.5855C30.7511 25.7428 30.5956 25.8598 30.3981 25.9367C30.6249 26.0062 30.8041 26.1287 30.9359 26.3043C31.0712 26.4763 31.1389 26.6848 31.1389 26.9299C31.1389 27.1677 31.0804 27.3762 30.9633 27.5555C30.8462 27.7311 30.6798 27.8683 30.4639 27.9671C30.2517 28.0622 30.0066 28.1098 29.7286 28.1098C29.4505 28.1098 29.2054 28.0622 28.9933 27.9671C28.7847 27.8683 28.6219 27.7311 28.5049 27.5555C28.3878 27.3762 28.3293 27.1677 28.3293 26.9299C28.3293 26.6848 28.3951 26.4745 28.5268 26.2989C28.6585 26.1232 28.8378 26.0025 29.0646 25.9367ZM30.5517 25.0861C30.5517 24.8629 30.4786 24.691 30.3322 24.5703C30.1859 24.4495 29.9847 24.3892 29.7286 24.3892C29.4762 24.3892 29.2768 24.4495 29.1304 24.5703C28.9841 24.691 28.9109 24.8648 28.9109 25.0916C28.9109 25.2965 28.9859 25.4611 29.1359 25.5855C29.2896 25.7099 29.4871 25.772 29.7286 25.772C29.9737 25.772 30.1712 25.7099 30.3212 25.5855C30.4749 25.4574 30.5517 25.291 30.5517 25.0861ZM29.7286 26.1562C29.4579 26.1562 29.2365 26.2202 29.0646 26.3482C28.8926 26.4726 28.8067 26.661 28.8067 26.9135C28.8067 27.1476 28.889 27.336 29.0536 27.4787C29.2219 27.6214 29.4469 27.6927 29.7286 27.6927C30.0103 27.6927 30.2334 27.6214 30.3981 27.4787C30.5627 27.336 30.645 27.1476 30.645 26.9135C30.645 26.6683 30.5609 26.4818 30.3926 26.3537C30.2243 26.222 30.003 26.1562 29.7286 26.1562ZM32.0436 28.0329C31.9485 28.0329 31.868 28 31.8021 27.9341C31.7363 27.8683 31.7033 27.7878 31.7033 27.6927C31.7033 27.5976 31.7363 27.5171 31.8021 27.4512C31.868 27.3854 31.9485 27.3525 32.0436 27.3525C32.135 27.3525 32.2119 27.3854 32.274 27.4512C32.3399 27.5171 32.3728 27.5976 32.3728 27.6927C32.3728 27.7878 32.3399 27.8683 32.274 27.9341C32.2119 28 32.135 28.0329 32.0436 28.0329ZM32.0436 25.6842C31.9485 25.6842 31.868 25.6513 31.8021 25.5855C31.7363 25.5196 31.7033 25.4391 31.7033 25.344C31.7033 25.2489 31.7363 25.1684 31.8021 25.1026C31.868 25.0367 31.9485 25.0038 32.0436 25.0038C32.135 25.0038 32.2119 25.0367 32.274 25.1026C32.3399 25.1684 32.3728 25.2489 32.3728 25.344C32.3728 25.4391 32.3399 25.5196 32.274 25.5855C32.2119 25.6513 32.135 25.6842 32.0436 25.6842ZM32.9594 25.0312C32.985 24.6947 33.1149 24.4312 33.349 24.241C33.5831 24.0508 33.8868 23.9557 34.2599 23.9557C34.5087 23.9557 34.7227 24.0014 34.902 24.0928C35.0849 24.1806 35.2221 24.3014 35.3136 24.455C35.4087 24.6087 35.4562 24.7825 35.4562 24.9763C35.4562 25.2032 35.3904 25.3989 35.2587 25.5635C35.1306 25.7281 34.9624 25.8342 34.7538 25.8818V25.9092C34.9916 25.9678 35.18 26.083 35.3191 26.255C35.4581 26.4269 35.5276 26.6519 35.5276 26.9299C35.5276 27.1385 35.48 27.3269 35.3849 27.4951C35.2898 27.6598 35.1471 27.7896 34.9569 27.8848C34.7666 27.9799 34.538 28.0274 34.2709 28.0274C33.8831 28.0274 33.5649 27.9268 33.3161 27.7256C33.0673 27.5208 32.9283 27.2317 32.899 26.8586H33.3819C33.4075 27.0781 33.4972 27.2573 33.6508 27.3964C33.8045 27.5354 34.0093 27.6049 34.2654 27.6049C34.5215 27.6049 34.7154 27.539 34.8471 27.4073C34.9825 27.272 35.0502 27.0982 35.0502 26.886C35.0502 26.6116 34.9587 26.4141 34.7758 26.2934C34.5929 26.1726 34.3167 26.1123 33.9472 26.1123H33.8209V25.6952H33.9526C34.2892 25.6916 34.5435 25.6367 34.7154 25.5306C34.8874 25.4208 34.9733 25.2526 34.9733 25.0257C34.9733 24.8318 34.9093 24.6764 34.7813 24.5593C34.6569 24.4422 34.4776 24.3837 34.2435 24.3837C34.0167 24.3837 33.8337 24.4422 33.6947 24.5593C33.5557 24.6764 33.4734 24.8337 33.4478 25.0312H32.9594ZM36.2018 25.9751C36.2018 25.3458 36.3043 24.8556 36.5091 24.5044C36.714 24.1496 37.0725 23.9721 37.5847 23.9721C38.0932 23.9721 38.4499 24.1496 38.6548 24.5044C38.8596 24.8556 38.9621 25.3458 38.9621 25.9751C38.9621 26.6153 38.8596 27.1128 38.6548 27.4677C38.4499 27.8226 38.0932 28 37.5847 28C37.0725 28 36.714 27.8226 36.5091 27.4677C36.3043 27.1128 36.2018 26.6153 36.2018 25.9751ZM38.4682 25.9751C38.4682 25.6568 38.4462 25.3879 38.4023 25.1684C38.3621 24.9453 38.2761 24.766 38.1444 24.6306C38.0164 24.4953 37.8298 24.4276 37.5847 24.4276C37.3359 24.4276 37.1457 24.4953 37.014 24.6306C36.8859 24.766 36.8 24.9453 36.7561 25.1684C36.7158 25.3879 36.6957 25.6568 36.6957 25.9751C36.6957 26.3043 36.7158 26.5805 36.7561 26.8037C36.8 27.0269 36.8859 27.2061 37.014 27.3415C37.1457 27.4769 37.3359 27.5445 37.5847 27.5445C37.8298 27.5445 38.0164 27.4769 38.1444 27.3415C38.2761 27.2061 38.3621 27.0269 38.4023 26.8037C38.4462 26.5805 38.4682 26.3043 38.4682 25.9751Z" fill="#817E84"/>
<path d="M153.261 26.6592H152V28.8118H153.261V26.6592Z" fill="#817E84"/>
<path d="M155.062 25.7998H153.801V28.8238H155.062V25.7998Z" fill="#817E84"/>
<path d="M156.865 24.957H155.604V28.8113H156.865V24.957Z" fill="#817E84"/>
<path d="M158.668 24.0059H157.406V28.8237H158.668V24.0059Z" fill="#817E84"/>
<path d="M161.4 26.4545C161.758 26.0767 162.191 25.7755 162.672 25.5695C163.154 25.3635 163.673 25.2572 164.199 25.2572C164.724 25.2572 165.243 25.3635 165.725 25.5695C166.206 25.7755 166.64 26.0767 166.998 26.4545L167.842 25.5627C167.376 25.0697 166.811 24.6765 166.183 24.4076C165.555 24.1388 164.878 24 164.193 24C163.509 24 162.831 24.1388 162.204 24.4076C161.576 24.6765 161.011 25.0697 160.545 25.5627L161.4 26.4545Z" fill="#817E84"/>
<path d="M162.526 27.6338C162.741 27.4101 163.001 27.232 163.288 27.1102C163.576 26.9885 163.886 26.9257 164.199 26.9257C164.512 26.9257 164.822 26.9885 165.11 27.1102C165.397 27.232 165.657 27.4101 165.872 27.6338L166.717 26.7522C166.395 26.4123 166.005 26.1412 165.572 25.9558C165.139 25.7705 164.671 25.6748 164.199 25.6748C163.727 25.6748 163.259 25.7705 162.826 25.9558C162.393 26.1412 162.004 26.4123 161.682 26.7522L162.526 27.6338Z" fill="#817E84"/>
<path d="M163.665 28.8118C163.808 28.6836 163.994 28.6124 164.187 28.6124C164.38 28.6124 164.566 28.6836 164.708 28.8118L165.563 27.9302C165.383 27.7457 165.167 27.5989 164.927 27.4987C164.688 27.3984 164.431 27.3467 164.171 27.3467C163.911 27.3467 163.654 27.3984 163.414 27.4987C163.175 27.5989 162.959 27.7457 162.779 27.9302L163.665 28.8118Z" fill="#817E84"/>
<path d="M177.39 24.5889H169.843C169.716 24.5889 169.613 24.6898 169.613 24.8144V28.0126C169.613 28.1372 169.716 28.2381 169.843 28.2381H177.39C177.516 28.2381 177.619 28.1372 177.619 28.0126V24.8144C177.619 24.6898 177.516 24.5889 177.39 24.5889Z" fill="#817E84"/>
<path d="M178.216 25.624H178.028C177.902 25.624 177.799 25.725 177.799 25.8495V26.9669C177.799 27.0914 177.902 27.1924 178.028 27.1924H178.216C178.342 27.1924 178.445 27.0914 178.445 26.9669V25.8495C178.445 25.725 178.342 25.624 178.216 25.624Z" fill="#817E84"/>
<path d="M171.584 62H40.4157C33.5587 62 28 67.4706 28 74.2188V277.781C28 284.529 33.5587 290 40.4157 290H171.584C178.441 290 184 284.529 184 277.781V74.2188C184 67.4706 178.441 62 171.584 62Z" fill="#F0EFED"/>
<path d="M131.048 114.746L124.971 129.446" stroke="white" stroke-width="0.99" stroke-miterlimit="10"/>
<path d="M58.6816 253.86L81.0312 256.515" stroke="white" stroke-width="0.99" stroke-miterlimit="10"/>
<path d="M43.6992 75.6797L81.6434 141.018" stroke="white" stroke-width="0.99" stroke-miterlimit="10"/>
<path d="M148.79 110.165L140.648 131.056" stroke="white" stroke-width="0.99" stroke-miterlimit="10"/>
<path d="M94.9805 133.442L122.751 161.119C124.109 162.483 124.973 164.248 125.211 166.142V166.142C125.256 166.527 125.28 166.914 125.284 167.301V293.877L136.959 306.896" stroke="white" stroke-width="1.42" stroke-miterlimit="10"/>
<path d="M123.434 71.5908L95.4766 133.946" stroke="white" stroke-width="1.42" stroke-miterlimit="10"/>
<path d="M130.962 114.829L109.145 104.22" stroke="white" stroke-width="0.99" stroke-miterlimit="10"/>
<path d="M124.971 264.471L176.602 264.788" stroke="white" stroke-width="0.99" stroke-miterlimit="10"/>
<path d="M26.9492 131.702L52.9159 157.421L95.7803 133.793" stroke="white" stroke-width="1.42" stroke-miterlimit="10"/>
<path d="M52.9122 157.42L57.2904 177.921C61.2117 196.322 62.2314 215.206 60.3134 233.911L52.7559 307.563" stroke="white" stroke-width="1.42" stroke-miterlimit="10"/>
<path d="M60.248 192.99L86.5692 184.902C86.5692 182.975 86.8715 174.129 86.8715 174.129L105.927 167.384" stroke="white" stroke-width="1.42" stroke-miterlimit="10"/>
<path d="M97.0098 170.919L101.774 224.684" stroke="white" stroke-width="0.99" stroke-miterlimit="10"/>
<path d="M113.521 151.875L105.922 168.266" stroke="white" stroke-width="0.99" stroke-miterlimit="10"/>
<path d="M73.044 188.275L64.4336 150.911" stroke="white" stroke-width="0.99" stroke-miterlimit="10"/>
<path d="M111.372 224.039L110.527 251.45" stroke="white" stroke-width="0.99" stroke-miterlimit="10"/>
<path d="M67.8223 167.702L82.6455 162.484" stroke="white" stroke-width="0.99" stroke-miterlimit="10"/>
<path d="M82.6483 162.485L80.1152 152.111" stroke="white" stroke-width="0.99" stroke-miterlimit="10"/>
<path d="M125.892 196.639H154.162V147.456L162.606 115.945L113.758 92.7988" stroke="white" stroke-width="1.42" stroke-miterlimit="10"/>
<path d="M26.332 220.104L42.0101 225.25L36.7875 254.178L58.2927 258.032" stroke="white" stroke-width="1.42" stroke-miterlimit="10"/>
<path d="M40.1641 236.177L59.5218 240.031" stroke="white" stroke-width="0.99" stroke-miterlimit="10"/>
<path d="M56.4491 174.458L39.2387 180.568L25.1035 172.531" stroke="white" stroke-width="1.42" stroke-miterlimit="10"/>
<path d="M149.865 264.79L150.168 307.228" stroke="white" stroke-width="0.99" stroke-miterlimit="10"/>
<path d="M124.967 278.614L90.5566 277.005" stroke="white" stroke-width="1.42" stroke-miterlimit="10"/>
<path d="M87.4857 307.543L92.7083 239.396L60.4453 235.531" stroke="white" stroke-width="1.42" stroke-miterlimit="10"/>
<path d="M69.0547 296.051L70.733 279.311L80.146 280.449L81.4908 267.123" stroke="white" stroke-width="0.99" stroke-miterlimit="10"/>
<path d="M125.58 216.883C126.039 216.883 157.895 215.92 157.895 215.92V224.92L182.788 225.248" stroke="white" stroke-width="0.99" stroke-miterlimit="10"/>
<path d="M150.475 285.042C151.392 284.714 167.987 284.714 167.987 284.714" stroke="white" stroke-width="0.99" stroke-miterlimit="10"/>
<path d="M154.163 147.457L134.492 147.775" stroke="white" stroke-width="0.99" stroke-miterlimit="10"/>
<path d="M82.1016 256.268C82.2579 255.786 85.9481 223.466 85.9481 223.466L124.518 224.429" stroke="white" stroke-width="1.42" stroke-miterlimit="10"/>
<path d="M65.9422 101.567C64.5726 101.613 63.2764 102.187 62.334 103.165C61.3917 104.144 60.8792 105.448 60.9074 106.795C60.9074 109.717 65.8172 117.497 65.8172 117.497C65.8172 117.497 70.8729 109.788 70.8937 106.877C70.9448 105.53 70.4536 104.216 69.5268 103.223C68.5999 102.229 67.312 101.634 65.9422 101.567ZM65.8797 109.307C65.3378 109.311 64.8069 109.156 64.3546 108.863C63.9023 108.569 63.549 108.15 63.3397 107.658C63.1304 107.167 63.0745 106.625 63.1793 106.102C63.284 105.579 63.5445 105.099 63.9277 104.722C64.3109 104.345 64.7995 104.089 65.3312 103.986C65.8629 103.883 66.4138 103.938 66.9137 104.144C67.4136 104.35 67.8399 104.697 68.1384 105.142C68.4369 105.587 68.5941 106.109 68.59 106.642C68.5914 106.992 68.5222 107.339 68.3865 107.663C68.2508 107.987 68.0512 108.281 67.7992 108.529C67.5473 108.777 67.248 108.973 66.9185 109.107C66.5891 109.24 66.236 109.308 65.8797 109.307Z" fill="#252525"/>
<path d="M66.1608 116.081L82.1203 142.825L64.3887 153.876L72.5508 191.322L87.0822 187.406L93.4722 225.918H128.216" stroke="#EA6237" stroke-width="1.42" stroke-miterlimit="10" stroke-linecap="round"/>
<path d="M133.655 226.319C133.655 227.351 133.344 228.36 132.761 229.218C132.178 230.076 131.349 230.745 130.379 231.14C129.41 231.535 128.343 231.638 127.314 231.437C126.285 231.235 125.339 230.738 124.597 230.009C123.855 229.279 123.35 228.349 123.145 227.337C122.94 226.325 123.045 225.276 123.447 224.323C123.848 223.369 124.529 222.554 125.401 221.981C126.274 221.408 127.299 221.102 128.349 221.102C129.756 221.102 131.106 221.651 132.101 222.63C133.096 223.608 133.655 224.935 133.655 226.319Z" fill="#252525"/>
<path d="M131.209 226.32C131.209 226.876 131.041 227.419 130.727 227.881C130.413 228.343 129.967 228.703 129.445 228.915C128.923 229.128 128.349 229.184 127.795 229.075C127.241 228.967 126.732 228.699 126.333 228.306C125.933 227.914 125.661 227.413 125.551 226.868C125.441 226.324 125.497 225.759 125.714 225.246C125.93 224.732 126.296 224.294 126.766 223.985C127.235 223.676 127.787 223.512 128.352 223.512C129.11 223.512 129.836 223.808 130.372 224.334C130.908 224.861 131.209 225.576 131.209 226.32Z" fill="#F0EFED"/>
<path d="M158.084 252.56H161.691C161.861 252.568 162.02 252.641 162.135 252.764C162.25 252.886 162.312 253.049 162.306 253.216V256.988C162.303 257.071 162.317 257.155 162.347 257.233C162.377 257.311 162.422 257.382 162.48 257.443C162.538 257.504 162.608 257.553 162.686 257.588C162.763 257.622 162.847 257.641 162.931 257.644C163.101 257.636 163.261 257.563 163.376 257.44C163.491 257.317 163.552 257.155 163.546 256.988V253.216C163.544 253.132 163.558 253.049 163.588 252.971C163.618 252.893 163.663 252.821 163.721 252.76C163.779 252.699 163.849 252.65 163.926 252.616C164.003 252.581 164.087 252.562 164.172 252.56H167.779C167.862 252.557 167.944 252.538 168.02 252.504C168.097 252.47 168.165 252.422 168.222 252.362C168.279 252.302 168.324 252.232 168.353 252.155C168.383 252.078 168.396 251.996 168.394 251.914C168.396 251.832 168.383 251.75 168.353 251.673C168.324 251.596 168.279 251.525 168.222 251.466C168.165 251.406 168.097 251.357 168.02 251.323C167.944 251.289 167.862 251.271 167.779 251.268H164.182C164.097 251.265 164.014 251.246 163.937 251.212C163.859 251.177 163.789 251.128 163.731 251.067C163.673 251.006 163.628 250.935 163.598 250.857C163.568 250.779 163.554 250.695 163.557 250.612V246.84C163.563 246.673 163.501 246.51 163.386 246.388C163.271 246.265 163.111 246.192 162.942 246.184C162.857 246.186 162.773 246.205 162.696 246.24C162.619 246.274 162.549 246.323 162.491 246.384C162.433 246.445 162.387 246.517 162.357 246.595C162.328 246.673 162.314 246.756 162.316 246.84V250.612C162.322 250.779 162.261 250.941 162.146 251.064C162.031 251.187 161.871 251.26 161.701 251.268H158.084C158.001 251.271 157.918 251.289 157.842 251.323C157.766 251.357 157.698 251.406 157.641 251.466C157.583 251.525 157.539 251.596 157.509 251.673C157.48 251.75 157.466 251.832 157.469 251.914C157.466 251.996 157.48 252.078 157.509 252.155C157.539 252.232 157.583 252.302 157.641 252.362C157.698 252.422 157.766 252.47 157.842 252.504C157.918 252.538 158.001 252.557 158.084 252.56Z" fill="white"/>
<path d="M142.539 236.302H148.428C148.705 236.302 148.97 236.41 149.165 236.602C149.361 236.794 149.471 237.055 149.471 237.327V243.129C149.471 243.401 149.58 243.661 149.776 243.854C149.971 244.046 150.237 244.154 150.513 244.154C150.79 244.154 151.055 244.046 151.25 243.854C151.446 243.661 151.556 243.401 151.556 243.129V237.337C151.556 237.065 151.665 236.804 151.861 236.612C152.056 236.42 152.321 236.312 152.598 236.312H158.394C158.67 236.312 158.935 236.204 159.131 236.012C159.326 235.819 159.436 235.559 159.436 235.287C159.436 235.015 159.326 234.754 159.131 234.562C158.935 234.37 158.67 234.262 158.394 234.262H152.504C152.228 234.262 151.962 234.154 151.767 233.962C151.572 233.769 151.462 233.509 151.462 233.237V227.445C151.462 227.173 151.352 226.912 151.156 226.72C150.961 226.528 150.696 226.42 150.419 226.42C150.143 226.42 149.878 226.528 149.682 226.72C149.487 226.912 149.377 227.173 149.377 227.445V233.237C149.377 233.509 149.267 233.769 149.072 233.962C148.876 234.154 148.611 234.262 148.334 234.262H142.445C142.168 234.262 141.903 234.37 141.708 234.562C141.512 234.754 141.402 235.015 141.402 235.287C141.403 235.429 141.434 235.569 141.493 235.698C141.552 235.828 141.637 235.944 141.744 236.04C141.851 236.135 141.976 236.208 142.113 236.253C142.25 236.298 142.395 236.314 142.539 236.302Z" fill="white"/>
<path d="M7.55354 388.013C5.86481 373.553 4.90231 359.034 4.66602 344.458C4.60348 340.665 4.61391 336.78 5.92736 333.182C7.39718 329.225 10.3577 326.006 13.2243 322.931C17.5608 318.257 21.9702 313.531 27.3804 310.107C34.4272 305.648 42.7874 303.639 51.1059 302.665C58.2314 301.97 65.388 301.628 72.5485 301.64L137.001 300.533C142.36 300.441 147.77 300.349 153.013 301.425C159.268 302.696 165.074 305.525 170.734 308.416C179.345 312.701 188.455 317.427 193.209 325.678C197.097 332.382 196.92 340.193 197.264 347.902C197.837 361.044 197.806 374.113 195.94 387.429C195.858 388.376 195.586 389.298 195.138 390.141C194.691 390.984 194.077 391.731 193.334 392.339C192.011 393.111 190.494 393.501 188.956 393.467C172.465 394.42 155.775 391.058 139.472 393.702" fill="#252525"/>
<path d="M142.758 267.191H61.4492L71.8734 248.381C72.3218 247.575 72.9821 246.903 73.7854 246.434C74.5886 245.965 75.5052 245.717 76.4393 245.716H127.716C128.65 245.717 129.567 245.965 130.37 246.434C131.173 246.903 131.833 247.575 132.282 248.381L142.758 267.191Z" fill="#252525"/>
<path d="M138.724 266.136H65.4316L75.2304 250.093C75.5175 249.617 75.9264 249.222 76.4165 248.949C76.9065 248.675 77.4607 248.533 78.0241 248.535H126.132C126.695 248.533 127.249 248.675 127.739 248.949C128.23 249.222 128.638 249.617 128.926 250.093L138.724 266.136Z" fill="#F0EFED"/>
<path d="M177.555 311.695L23.1094 314.288L39.3503 272.106C39.919 270.459 40.983 269.02 42.4014 267.981C43.8198 266.941 45.5257 266.349 47.2936 266.284L152.338 265.505C154.069 265.538 155.749 266.08 157.163 267.062C158.577 268.043 159.659 269.418 160.271 271.01L177.555 311.695Z" fill="#252525"/>
<path d="M173.241 311.533L27.4375 313.86L42.7715 275.338C43.3361 273.816 44.3522 272.495 45.6884 271.546C47.0245 270.598 48.6194 270.065 50.2666 270.018L149.432 269.311C151.046 269.329 152.617 269.817 153.949 270.713C155.281 271.608 156.314 272.872 156.917 274.344L173.241 311.533Z" fill="#F0EFED"/>
<path d="M144.239 359.896C144.239 359.896 112.122 362.777 101.385 362.777C90.8566 362.777 59.365 359.896 59.365 359.896C57.0404 359.896 55.1953 358.43 55.1953 356.637V352.536C55.1953 350.742 57.0821 349.287 59.365 349.287C59.365 349.287 90.6377 346.55 101.062 346.55C111.872 346.55 144.281 349.287 144.281 349.287C146.616 349.287 148.503 350.742 148.503 352.536V356.637C148.461 358.43 146.574 359.896 144.239 359.896Z" fill="#F0EFED"/>
<path d="M151.953 374.422H51.6612C50.9012 374.422 50.2852 375.028 50.2852 375.775V377.087C50.2852 377.834 50.9012 378.44 51.6612 378.44H151.953C152.713 378.44 153.329 377.834 153.329 377.087V375.775C153.329 375.028 152.713 374.422 151.953 374.422Z" fill="#F0EFED"/>
<path d="M195.746 384.682H7.87014C4.63463 384.682 2.01172 387.261 2.01172 390.443V397.208C2.01172 400.39 4.63463 402.969 7.87014 402.969H195.746C198.981 402.969 201.604 400.39 201.604 397.208V390.443C201.604 387.261 198.981 384.682 195.746 384.682Z" fill="#C4C4C4"/>
<path d="M24.6831 311.46C22.838 311.296 20.8887 311.102 19.4084 309.995C18.5568 309.269 17.816 308.427 17.2089 307.493C15.6165 305.177 13.3751 303.365 10.7563 302.276C9.44318 301.755 8.00747 301.609 6.61369 301.854C5.2199 302.098 3.92442 302.724 2.87563 303.66C0.623999 305.946 0.717822 309.861 2.6046 312.434C3.61921 313.675 4.90303 314.677 6.36215 315.367C7.82126 316.057 9.41876 316.417 11.0378 316.422C12.9444 316.432 14.8474 316.257 16.719 315.899L25.2981 314.546" fill="#252525"/>
<path d="M176.24 311.462C178.085 311.298 180.034 311.103 181.515 309.996C182.366 309.271 183.107 308.428 183.714 307.495C185.307 305.179 187.548 303.366 190.167 302.277C191.482 301.757 192.919 301.611 194.314 301.856C195.71 302.1 197.007 302.726 198.058 303.661C200.299 305.947 200.216 309.863 198.318 312.436C197.304 313.676 196.02 314.678 194.561 315.368C193.102 316.058 191.504 316.419 189.885 316.423C187.979 316.433 186.076 316.258 184.204 315.901L175.625 314.547" fill="#252525"/>
<path d="M47.6031 357.935C42.7008 359.329 37.527 359.529 32.5288 358.516C27.5306 357.503 22.8583 355.309 18.9157 352.123C15.7884 349.509 13.026 346.054 12.3901 342.026C12.2692 341.467 12.3015 340.887 12.4839 340.345C12.9218 339.32 14.2561 338.879 15.4236 338.725C23.763 337.618 31.9981 341.124 39.1804 345.398C42.4433 347.434 45.4011 349.908 47.968 352.748C49.198 354.07 50.1883 356.346 48.7602 357.474" fill="#F0EFED"/>
<path d="M155.904 357.935C160.805 359.328 165.977 359.527 170.974 358.515C175.97 357.502 180.64 355.308 184.581 352.123C187.761 349.509 190.482 346.054 191.107 342.026C191.231 341.468 191.203 340.888 191.024 340.345C190.575 339.32 189.251 338.879 188.074 338.725C179.734 337.618 171.499 341.124 164.317 345.398C161.057 347.434 158.103 349.908 155.54 352.748C154.299 354.07 153.309 356.346 154.737 357.474" fill="#F0EFED"/>
</g>
</svg>
